<svg width="400" height="400" viewBox="0 0 400 400" fill="none" xmlns="http://www.w3.org/2000/svg">
<g filter="url(#filter0_i_2_5)">
<path d="M178 12.7017C191.614 4.84187 208.386 4.84186 222 12.7017L351.205 87.2983C364.819 95.1581 373.205 109.684 373.205 125.403V274.597C373.205 290.316 364.819 304.842 351.205 312.702L222 387.298C208.386 395.158 191.614 395.158 178 387.298L48.7949 312.702C35.1813 304.842 26.7949 290.316 26.7949 274.597V125.403C26.7949 109.684 35.1813 95.1581 48.7949 87.2983L178 12.7017Z" fill="#911E1E"/>
</g>
<path d="M178 12.7017C191.614 4.84187 208.386 4.84186 222 12.7017L351.205 87.2983C364.819 95.1581 373.205 109.684 373.205 125.403V274.597C373.205 290.316 364.819 304.842 351.205 312.702L222 387.298C208.386 395.158 191.614 395.158 178 387.298L48.7949 312.702C35.1813 304.842 26.7949 290.316 26.7949 274.597V125.403C26.7949 109.684 35.1813 95.1581 48.7949 87.2983L178 12.7017Z" stroke="black" stroke-width="6"/>
<g filter="url(#filter1_d_2_5)">
<path d="M75.4475 208.12C75.4475 207.64 75.7675 207.24 76.4075 206.92C77.0475 206.52 77.7675 206.2 78.5675 205.96C79.4475 205.64 80.3275 205.36 81.2075 205.12C82.0875 204.88 82.7275 204.64 83.1275 204.4V138.64C82.7275 138.4 82.0875 138.2 81.2075 138.04C80.3275 137.8 79.4475 137.52 78.5675 137.2C77.7675 136.88 77.0475 136.56 76.4075 136.24C75.7675 135.84 75.4475 135.4 75.4475 134.92C75.4475 134.44 75.5675 133.84 75.8075 133.12C76.1275 132.4 76.7675 132.04 77.7275 132.04H98.3675C99.8075 132.04 100.848 132.4 101.488 133.12C102.128 133.76 102.448 134.28 102.448 134.68C102.448 135.64 102.008 136.32 101.128 136.72C100.328 137.04 99.4075 137.32 98.3675 137.56C97.3275 137.8 96.3275 138.12 95.3675 138.52C94.4875 138.84 94.0075 139.48 93.9275 140.44V167.2H131.608V138.64C131.208 138.4 130.568 138.2 129.688 138.04C128.808 137.8 127.928 137.52 127.048 137.2C126.248 136.88 125.528 136.56 124.888 136.24C124.248 135.84 123.928 135.4 123.928 134.92C123.928 134.44 124.048 133.84 124.288 133.12C124.608 132.4 125.248 132.04 126.208 132.04H146.848C148.288 132.04 149.328 132.4 149.968 133.12C150.608 133.76 150.928 134.28 150.928 134.68C150.928 135.72 150.488 136.4 149.608 136.72C148.728 137.04 147.728 137.32 146.608 137.56C145.568 137.72 144.608 138.04 143.728 138.52C142.848 138.92 142.408 139.72 142.408 140.92V202.12C142.408 203.32 142.848 204.16 143.728 204.64C144.608 205.04 145.568 205.36 146.608 205.6C147.728 205.76 148.728 206 149.608 206.32C150.488 206.64 150.928 207.32 150.928 208.36C150.928 208.76 150.608 209.32 149.968 210.04C149.328 210.68 148.288 211 146.848 211H126.208C125.248 211 124.608 210.64 124.288 209.92C124.048 209.2 123.928 208.6 123.928 208.12C123.928 207.64 124.248 207.24 124.888 206.92C125.528 206.52 126.248 206.2 127.048 205.96C127.928 205.64 128.808 205.36 129.688 205.12C130.568 204.88 131.208 204.64 131.608 204.4V173.44C131.128 173.6 130.768 173.68 130.528 173.68H93.9275V202.12C93.9275 203.32 94.3675 204.16 95.2475 204.64C96.1275 205.04 97.0875 205.36 98.1275 205.6C99.2475 205.76 100.248 206 101.128 206.32C102.008 206.64 102.448 207.32 102.448 208.36C102.448 208.76 102.128 209.32 101.488 210.04C100.848 210.68 99.8075 211 98.3675 211H77.7275C76.7675 211 76.1275 210.64 75.8075 209.92C75.5675 209.2 75.4475 208.6 75.4475 208.12ZM160.26 186.76C160.26 182.12 160.9 177.8 162.18 173.8C163.46 169.8 165.26 166.32 167.58 163.36C169.98 160.4 172.86 158.08 176.22 156.4C179.66 154.64 183.46 153.76 187.62 153.76C192.18 153.76 195.82 154.68 198.54 156.52C201.26 158.28 203.34 160.56 204.78 163.36C206.3 166.16 207.3 169.24 207.78 172.6C208.26 175.88 208.54 179.08 208.62 182.2C208.62 183.4 208.1 184.08 207.06 184.24C206.02 184.4 204.94 184.48 203.82 184.48H171.3C171.46 187.2 171.86 189.84 172.5 192.4C173.22 194.96 174.22 197.24 175.5 199.24C176.86 201.24 178.54 202.88 180.54 204.16C182.62 205.36 185.02 205.96 187.74 205.96C190.7 205.96 193.1 205.76 194.94 205.36C196.78 204.88 198.3 204.4 199.5 203.92C200.7 203.36 201.7 202.88 202.5 202.48C203.38 202 204.3 201.76 205.26 201.76C206.38 201.76 206.94 202.2 206.94 203.08C206.94 204.12 206.34 205.24 205.14 206.44C203.94 207.56 202.3 208.64 200.22 209.68C198.22 210.64 195.86 211.4 193.14 211.96C190.5 212.6 187.7 212.92 184.74 212.92C180.5 212.92 176.82 212.2 173.7 210.76C170.66 209.32 168.14 207.4 166.14 205C164.14 202.6 162.66 199.84 161.7 196.72C160.74 193.52 160.26 190.2 160.26 186.76ZM196.74 178.24C196.66 175.76 196.46 173.44 196.14 171.28C195.82 169.04 195.22 167.12 194.34 165.52C193.46 163.92 192.18 162.64 190.5 161.68C188.82 160.72 186.62 160.24 183.9 160.24C179.9 160.24 176.86 162.04 174.78 165.64C172.78 169.16 171.62 173.64 171.3 179.08L196.74 178.24ZM215.034 208.6C215.034 208.2 215.274 207.84 215.754 207.52C216.314 207.12 216.954 206.76 217.674 206.44C218.394 206.12 219.114 205.84 219.834 205.6C220.554 205.28 221.074 205.04 221.394 204.88L238.554 183.88L221.274 163.48C220.074 162.36 219.034 161.64 218.154 161.32C217.354 161 216.634 160.8 215.994 160.72C215.434 160.64 214.994 160.52 214.674 160.36C214.434 160.12 214.314 159.56 214.314 158.68C214.314 156.92 215.674 156.04 218.394 156.04H237.234C238.194 156.04 238.794 156.32 239.034 156.88C239.354 157.44 239.514 157.96 239.514 158.44C239.514 158.76 239.234 159.12 238.674 159.52C238.194 159.92 237.594 160.28 236.874 160.6C236.234 160.92 235.554 161.24 234.834 161.56C234.194 161.8 233.714 162 233.394 162.16L244.674 178.36L255.834 164.2C255.674 163.24 255.234 162.6 254.514 162.28C253.874 161.88 253.154 161.56 252.354 161.32C251.554 161.08 250.834 160.8 250.194 160.48C249.634 160.08 249.354 159.48 249.354 158.68C249.354 156.92 250.714 156.04 253.434 156.04H270.234C271.194 156.04 271.794 156.32 272.034 156.88C272.354 157.44 272.514 157.96 272.514 158.44C272.514 158.76 272.234 159.12 271.674 159.52C271.114 159.92 270.474 160.28 269.754 160.6C269.034 160.92 268.314 161.24 267.594 161.56C266.954 161.8 266.474 162 266.154 162.16L248.394 183.88L264.954 202.72C266.234 204.16 267.394 205.08 268.434 205.48C269.474 205.88 270.354 206.12 271.074 206.2C271.794 206.28 272.354 206.44 272.754 206.68C273.154 206.84 273.354 207.4 273.354 208.36C273.354 210.12 271.994 211 269.274 211H250.554C249.594 211 248.954 210.72 248.634 210.16C248.394 209.6 248.274 209.08 248.274 208.6C248.274 208.28 248.514 207.96 248.994 207.64C249.474 207.24 250.034 206.88 250.674 206.56C251.314 206.16 251.914 205.8 252.474 205.48C253.114 205.16 253.554 204.96 253.794 204.88L242.034 188.32L231.714 202.6C231.714 203.72 232.034 204.48 232.674 204.88C233.394 205.28 234.154 205.6 234.954 205.84C235.754 206 236.474 206.24 237.114 206.56C237.834 206.88 238.194 207.48 238.194 208.36C238.194 210.12 236.834 211 234.114 211H217.314C216.354 211 215.714 210.72 215.394 210.16C215.154 209.6 215.034 209.08 215.034 208.6ZM277.922 198.88C277.922 195.28 278.842 192.24 280.682 189.76C282.522 187.28 284.962 185.24 288.002 183.64C291.042 181.96 294.482 180.68 298.322 179.8C302.242 178.92 306.242 178.32 310.322 178V175.36C310.322 173.44 310.202 171.52 309.962 169.6C309.722 167.68 309.162 165.92 308.282 164.32C307.322 162.72 306.002 161.72 304.322 161.32C302.722 160.84 301.122 160.6 299.522 160.6C297.362 160.6 295.682 160.68 294.482 160.84C293.282 160.92 292.362 161.12 291.722 161.44C291.162 161.76 290.802 162.24 290.642 162.88C290.562 163.44 290.522 164.24 290.522 165.28C290.522 166.4 290.642 167.12 290.882 167.44C291.202 167.68 291.362 168 291.362 168.4C291.362 169.04 291.082 169.72 290.522 170.44C290.042 171.08 289.402 171.68 288.602 172.24C287.882 172.72 287.042 173.12 286.082 173.44C285.202 173.76 284.362 173.92 283.562 173.92C281.722 173.92 280.602 173.4 280.202 172.36C279.802 171.24 279.602 170.28 279.602 169.48C279.602 167.56 280.522 165.68 282.362 163.84C284.282 162 286.562 160.32 289.202 158.8C291.922 157.28 294.722 156.08 297.602 155.2C300.482 154.24 302.922 153.76 304.922 153.76C308.282 153.76 311.002 154.28 313.082 155.32C315.242 156.36 316.882 157.72 318.002 159.4C319.122 161.08 319.882 163 320.282 165.16C320.682 167.24 320.882 169.36 320.882 171.52V205.84C321.762 205.84 322.682 205.68 323.642 205.36C324.602 204.96 325.562 204.76 326.522 204.76C327.402 204.76 327.962 204.92 328.202 205.24C328.522 205.56 328.682 206 328.682 206.56C328.682 206.88 328.362 207.4 327.722 208.12C327.082 208.76 326.162 209.44 324.962 210.16C323.842 210.88 322.522 211.52 321.002 212.08C319.482 212.64 317.802 212.92 315.962 212.92C314.442 212.92 313.122 212.6 312.002 211.96C310.882 211.32 310.322 210.24 310.322 208.72V204.16C308.242 206.72 305.962 208.84 303.482 210.52C301.002 212.12 298.002 212.92 294.482 212.92C291.522 212.92 288.962 212.48 286.802 211.6C284.722 210.72 283.002 209.6 281.642 208.24C280.362 206.8 279.402 205.28 278.762 203.68C278.202 202 277.922 200.4 277.922 198.88ZM289.202 194.92C289.202 198.12 290.002 200.8 291.602 202.96C293.202 205.12 296.162 206.2 300.482 206.2C302.082 206.2 303.762 205.6 305.522 204.4C307.362 203.2 308.962 201.64 310.322 199.72V183.52C308.082 183.6 305.722 183.84 303.242 184.24C300.762 184.56 298.482 185.12 296.402 185.92C294.322 186.72 292.602 187.84 291.242 189.28C289.882 190.72 289.202 192.6 289.202 194.92ZM115.136 256.84C115.136 254.6 115.976 252.48 117.656 250.48C119.336 248.48 121.216 246.68 123.296 245.08C118.976 244.2 115.576 242.48 113.096 239.92C110.696 237.28 109.496 233.68 109.496 229.12C109.496 225.68 110.136 222.64 111.416 220C112.696 217.36 114.456 215.16 116.696 213.4C119.016 211.56 121.776 210.16 124.976 209.2C128.176 208.24 131.736 207.76 135.656 207.76C138.856 207.76 141.896 208.32 144.776 209.44C146.056 208.4 147.376 207.24 148.736 205.96C150.176 204.68 151.496 203.48 152.696 202.36C153.896 201.24 154.936 200.32 155.816 199.6C156.776 198.8 157.456 198.4 157.856 198.4C158.816 198.4 159.776 198.76 160.736 199.48C161.696 200.2 162.176 201.12 162.176 202.24C162.176 203.76 161.616 205.08 160.496 206.2C159.456 207.24 158.176 208.12 156.656 208.84C155.216 209.48 153.736 210 152.216 210.4C150.696 210.8 149.456 211.16 148.496 211.48C150.496 212.84 152.096 214.56 153.296 216.64C154.496 218.72 155.096 221.04 155.096 223.6C155.096 227.52 154.456 230.88 153.176 233.68C151.896 236.48 150.176 238.8 148.016 240.64C145.856 242.4 143.336 243.72 140.456 244.6C137.656 245.4 134.696 245.8 131.576 245.8H128.696C127.896 246.92 127.176 248.2 126.536 249.64C125.976 251 125.696 252.56 125.696 254.32C125.696 255.84 126.296 256.84 127.496 257.32C128.696 257.8 130.376 258.04 132.536 258.04C141.896 258.36 148.576 259.84 152.576 262.48C156.656 265.12 158.696 268.44 158.696 272.44C158.696 277 157.656 280.92 155.576 284.2C153.496 287.48 150.856 290.16 147.656 292.24C144.536 294.32 141.136 295.84 137.456 296.8C133.776 297.76 130.376 298.24 127.256 298.24C120.856 298.24 116.056 296.64 112.856 293.44C109.736 290.32 108.176 286.2 108.176 281.08C108.176 279 108.536 277.08 109.256 275.32C109.976 273.64 110.896 272.12 112.016 270.76C113.216 269.48 114.496 268.32 115.856 267.28C117.296 266.32 118.736 265.48 120.176 264.76C118.336 264.28 117.056 263.32 116.336 261.88C115.616 260.36 115.216 258.68 115.136 256.84ZM133.136 239.8C136.976 239.8 140.016 238.96 142.256 237.28C144.576 235.6 145.736 232.6 145.736 228.28C145.736 223.48 144.336 219.84 141.536 217.36C138.736 214.88 135.336 213.64 131.336 213.64C126.856 213.64 123.696 214.4 121.856 215.92C120.096 217.44 119.216 220.24 119.216 224.32C119.216 229.36 120.256 233.2 122.336 235.84C124.496 238.48 128.096 239.8 133.136 239.8ZM118.136 277.84C118.136 281.84 119.376 285.04 121.856 287.44C124.336 289.92 128.576 291.16 134.576 291.16C137.776 291.16 140.336 290.84 142.256 290.2C144.176 289.56 145.616 288.6 146.576 287.32C147.616 286.12 148.296 284.52 148.616 282.52C148.936 280.6 149.096 278.32 149.096 275.68C149.096 272.72 147.136 270.24 143.216 268.24C139.296 266.32 133.416 265.24 125.576 265C120.616 268.12 118.136 272.4 118.136 277.84ZM169.421 239.8C169.421 235.72 170.021 231.76 171.221 227.92C172.421 224.08 174.221 220.68 176.621 217.72C179.021 214.68 182.021 212.28 185.621 210.52C189.221 208.68 193.381 207.76 198.101 207.76C202.421 207.76 206.101 208.6 209.141 210.28C212.261 211.96 214.781 214.16 216.701 216.88C218.621 219.52 220.021 222.52 220.901 225.88C221.781 229.16 222.221 232.44 222.221 235.72C222.221 237.64 222.061 239.72 221.741 241.96C221.421 244.12 220.901 246.28 220.181 248.44C219.461 250.6 218.501 252.68 217.301 254.68C216.181 256.6 214.741 258.32 212.981 259.84C210.421 262.16 207.341 263.92 203.741 265.12C200.221 266.32 196.661 266.92 193.061 266.92C189.781 266.92 186.701 266.36 183.821 265.24C180.941 264.12 178.421 262.44 176.261 260.2C174.181 257.88 172.501 255.04 171.221 251.68C170.021 248.32 169.421 244.36 169.421 239.8ZM180.341 235.72C180.341 238.6 180.621 241.56 181.181 244.6C181.821 247.56 182.821 250.28 184.181 252.76C185.541 255.16 187.381 257.16 189.701 258.76C192.101 260.36 195.021 261.16 198.461 261.16C200.861 261.16 202.861 260.56 204.461 259.36C206.141 258.16 207.501 256.56 208.541 254.56C209.581 252.56 210.301 250.28 210.701 247.72C211.181 245.16 211.421 242.52 211.421 239.8C211.421 236.84 211.101 233.8 210.461 230.68C209.901 227.56 208.901 224.76 207.461 222.28C206.101 219.72 204.261 217.64 201.941 216.04C199.701 214.36 196.861 213.52 193.421 213.52C191.021 213.52 188.981 214.16 187.301 215.44C185.621 216.72 184.261 218.44 183.221 220.6C182.261 222.68 181.541 225.04 181.061 227.68C180.581 230.32 180.341 233 180.341 235.72ZM232.699 262.6C232.699 262.2 232.939 261.84 233.419 261.52C233.979 261.12 234.619 260.76 235.339 260.44C236.059 260.12 236.779 259.84 237.499 259.6C238.219 259.28 238.739 259.04 239.059 258.88V219.4C237.459 219.08 235.819 218.56 234.139 217.84C232.459 217.12 231.619 216.48 231.619 215.92C231.619 215.12 232.099 214.32 233.059 213.52C234.019 212.64 235.179 211.88 236.539 211.24C237.979 210.6 239.499 210.08 241.099 209.68C242.699 209.2 244.099 208.96 245.299 208.96C247.059 208.96 248.019 209.36 248.179 210.16V216.28C250.979 213.8 253.979 211.76 257.179 210.16C260.459 208.56 264.139 207.76 268.219 207.76C271.019 207.76 273.459 208.16 275.539 208.96C277.699 209.68 279.579 211.08 281.179 213.16C282.779 215.24 283.779 217.32 284.179 219.4C284.659 221.4 284.899 223.44 284.899 225.52V256.84C284.899 257.8 285.259 258.48 285.979 258.88C286.779 259.2 287.619 259.48 288.499 259.72C289.379 259.96 290.179 260.24 290.899 260.56C291.619 260.88 291.979 261.48 291.979 262.36C291.979 262.76 291.659 263.32 291.019 264.04C290.379 264.68 289.339 265 287.899 265H270.499C269.539 265 268.899 264.72 268.579 264.16C268.339 263.6 268.219 263.08 268.219 262.6C268.219 262.2 268.459 261.84 268.939 261.52C269.499 261.12 270.099 260.76 270.739 260.44C271.459 260.12 272.139 259.84 272.779 259.6C273.499 259.28 274.019 259.04 274.339 258.88V230.08C274.339 224.48 273.299 220.52 271.219 218.2C269.219 215.88 266.659 214.72 263.539 214.72C261.139 214.72 258.619 215.2 255.979 216.16C253.419 217.04 251.219 218.32 249.379 220V256.12C249.379 257.32 249.779 258.16 250.579 258.64C251.459 259.04 252.419 259.36 253.459 259.6C254.499 259.84 255.419 260.12 256.219 260.44C257.099 260.76 257.539 261.4 257.539 262.36C257.539 264.12 256.179 265 253.459 265H234.979C234.019 265 233.379 264.72 233.059 264.16C232.819 263.6 232.699 263.08 232.699 262.6Z" fill="#DB8989"/>
<path d="M76.4075 206.92L79.9852 214.075L80.3252 213.905L80.6475 213.704L76.4075 206.92ZM78.5675 205.96L80.8663 213.623L81.0859 213.557L81.3014 213.478L78.5675 205.96ZM81.2075 205.12L79.1026 197.402H79.1026L81.2075 205.12ZM83.1275 204.4L87.2435 211.26L91.1275 208.93V204.4H83.1275ZM83.1275 138.64H91.1275V134.11L87.2434 131.78L83.1275 138.64ZM81.2075 138.04L79.1026 145.758L79.4362 145.849L79.7764 145.911L81.2075 138.04ZM78.5675 137.2L75.5964 144.628L75.7142 144.675L75.8336 144.718L78.5675 137.2ZM76.4075 136.24L72.1675 143.024L72.4898 143.225L72.8298 143.395L76.4075 136.24ZM75.8075 133.12L68.497 129.871L68.3402 130.224L68.218 130.59L75.8075 133.12ZM101.488 133.12L95.5082 138.435L95.6644 138.611L95.8306 138.777L101.488 133.12ZM101.128 136.72L104.099 144.148L104.27 144.079L104.438 144.003L101.128 136.72ZM98.3675 137.56L96.5686 129.765L96.5686 129.765L98.3675 137.56ZM95.3675 138.52L98.1014 146.038L98.2745 145.975L98.4444 145.905L95.3675 138.52ZM93.9275 140.44L85.9551 139.776L85.9275 140.107V140.44H93.9275ZM93.9275 167.2H85.9275V175.2H93.9275V167.2ZM131.608 167.2V175.2H139.608V167.2H131.608ZM131.608 138.64H139.608V134.11L135.723 131.78L131.608 138.64ZM129.688 138.04L127.583 145.758L127.916 145.849L128.256 145.911L129.688 138.04ZM127.048 137.2L124.076 144.628L124.194 144.675L124.314 144.718L127.048 137.2ZM124.888 136.24L120.648 143.024L120.97 143.225L121.31 143.395L124.888 136.24ZM124.288 133.12L116.977 129.871L116.82 130.224L116.698 130.59L124.288 133.12ZM149.968 133.12L143.988 138.435L144.144 138.611L144.311 138.777L149.968 133.12ZM149.607 136.72L146.874 129.202L146.874 129.202L149.607 136.72ZM146.608 137.56L147.824 145.467L148.055 145.431L148.284 145.382L146.608 137.56ZM143.728 138.52L147.038 145.803L147.303 145.683L147.558 145.543L143.728 138.52ZM143.728 204.64L139.897 211.663L140.152 211.803L140.417 211.923L143.728 204.64ZM146.608 205.6L144.809 213.395L145.14 213.472L145.476 213.52L146.608 205.6ZM149.607 206.32L146.874 213.838H146.874L149.607 206.32ZM149.968 210.04L155.624 215.697L155.791 215.531L155.947 215.355L149.968 210.04ZM124.288 209.92L116.698 212.45L116.82 212.816L116.977 213.169L124.288 209.92ZM124.888 206.92L128.465 214.075L128.805 213.905L129.127 213.704L124.888 206.92ZM127.048 205.96L129.346 213.623L129.566 213.557L129.781 213.478L127.048 205.96ZM129.688 205.12L127.583 197.402H127.583L129.688 205.12ZM131.608 204.4L135.723 211.26L139.608 208.93V204.4H131.608ZM131.608 173.44H139.608V162.341L129.078 165.851L131.608 173.44ZM93.9275 173.68V165.68H85.9275V173.68H93.9275ZM95.2475 204.64L91.4167 211.663L91.6722 211.803L91.9371 211.923L95.2475 204.64ZM98.1275 205.6L96.3286 213.395L96.6597 213.472L96.9961 213.52L98.1275 205.6ZM101.128 206.32L103.861 198.802H103.861L101.128 206.32ZM101.488 210.04L107.144 215.697L107.311 215.531L107.467 215.355L101.488 210.04ZM75.8075 209.92L68.218 212.45L68.3402 212.816L68.497 213.169L75.8075 209.92ZM83.4475 208.12C83.4475 209.823 82.8274 211.341 81.9345 212.458C81.1439 213.446 80.3162 213.91 79.9852 214.075L72.8298 199.765C70.9682 200.695 67.4475 203.243 67.4475 208.12H83.4475ZM80.6475 213.704C80.622 213.72 80.6777 213.679 80.8663 213.623L76.2687 198.297C74.8573 198.721 73.473 199.32 72.1675 200.136L80.6475 213.704ZM81.3014 213.478C81.9801 213.232 82.6503 213.019 83.3124 212.838L79.1026 197.402C78.0047 197.701 76.9149 198.048 75.8336 198.442L81.3014 213.478ZM83.3124 212.838C84.3613 212.552 85.8707 212.084 87.2435 211.26L79.0115 197.54C79.1118 197.48 79.1978 197.433 79.2657 197.397C79.3339 197.362 79.3895 197.335 79.43 197.316C79.5084 197.28 79.5485 197.266 79.5385 197.269C79.5301 197.273 79.4904 197.287 79.4135 197.311C79.3373 197.335 79.2348 197.366 79.1026 197.402L83.3124 212.838ZM91.1275 204.4V138.64H75.1275V204.4H91.1275ZM87.2434 131.78C85.5683 130.775 83.7609 130.373 82.6386 130.169L79.7764 145.911C79.9928 145.95 80.038 145.97 79.9613 145.946C79.9179 145.932 79.8139 145.898 79.6654 145.835C79.5199 145.774 79.2906 145.667 79.0116 145.5L87.2434 131.78ZM83.3124 130.322C82.6503 130.141 81.9801 129.928 81.3014 129.682L75.8336 144.718C76.9149 145.112 78.0047 145.459 79.1026 145.758L83.3124 130.322ZM81.5386 129.772C80.9046 129.519 80.3918 129.288 79.9852 129.085L72.8298 143.395C73.7032 143.832 74.6304 144.241 75.5964 144.628L81.5386 129.772ZM80.6475 129.456C80.9405 129.639 83.4475 131.314 83.4475 134.92H67.4475C67.4475 139.486 70.5945 142.041 72.1675 143.024L80.6475 129.456ZM83.4475 134.92C83.4475 135.327 83.3988 135.596 83.3821 135.679C83.3638 135.77 83.3581 135.766 83.397 135.65L68.218 130.59C67.8449 131.709 67.4475 133.23 67.4475 134.92H83.4475ZM83.118 136.369C82.6329 137.461 81.7427 138.555 80.4496 139.283C79.2593 139.952 78.2113 140.04 77.7275 140.04V124.04C76.2837 124.04 74.4357 124.308 72.6054 125.337C70.6723 126.425 69.3021 128.059 68.497 129.871L83.118 136.369ZM77.7275 140.04H98.3675V124.04H77.7275V140.04ZM98.3675 140.04C98.6624 140.04 97.0073 140.121 95.5082 138.435L107.467 127.805C104.688 124.679 100.953 124.04 98.3675 124.04V140.04ZM95.8306 138.777C95.8994 138.846 95.6772 138.643 95.3942 138.183C95.156 137.796 94.4475 136.545 94.4475 134.68H110.448C110.448 132.415 109.579 130.704 109.021 129.797C108.418 128.817 107.716 128.034 107.144 127.463L95.8306 138.777ZM94.4475 134.68C94.4475 133.908 94.6384 132.743 95.4009 131.564C96.1612 130.389 97.1371 129.746 97.8171 129.437L104.438 144.003C105.998 143.294 107.634 142.111 108.834 140.256C110.037 138.397 110.448 136.412 110.448 134.68H94.4475ZM98.1564 129.292C97.8144 129.429 97.2992 129.596 96.5686 129.765L100.166 145.355C101.516 145.044 102.841 144.651 104.099 144.148L98.1564 129.292ZM96.5686 129.765C95.1033 130.103 93.6751 130.559 92.2906 131.135L98.4444 145.905C98.9799 145.681 99.5517 145.497 100.166 145.355L96.5686 129.765ZM92.6336 131.002C90.9875 131.6 89.2696 132.677 87.9475 134.44C86.6358 136.189 86.0944 138.105 85.9551 139.776L101.9 141.104C101.841 141.815 101.579 142.931 100.748 144.04C99.9054 145.163 98.8675 145.76 98.1014 146.038L92.6336 131.002ZM85.9275 140.44V167.2H101.928V140.44H85.9275ZM93.9275 175.2H131.608V159.2H93.9275V175.2ZM139.608 167.2V138.64H123.608V167.2H139.608ZM135.723 131.78C134.048 130.775 132.241 130.373 131.119 130.169L128.256 145.911C128.473 145.95 128.518 145.97 128.441 145.946C128.398 145.932 128.294 145.898 128.145 145.835C128 145.774 127.771 145.667 127.492 145.5L135.723 131.78ZM131.792 130.322C131.13 130.141 130.46 129.928 129.781 129.682L124.314 144.718C125.395 145.112 126.485 145.459 127.583 145.758L131.792 130.322ZM130.019 129.772C129.385 129.519 128.872 129.288 128.465 129.085L121.31 143.395C122.183 143.832 123.11 144.241 124.076 144.628L130.019 129.772ZM129.127 129.456C129.421 129.639 131.928 131.314 131.928 134.92H115.928C115.928 139.486 119.074 142.041 120.648 143.024L129.127 129.456ZM131.928 134.92C131.928 135.327 131.879 135.596 131.862 135.679C131.844 135.77 131.838 135.766 131.877 135.65L116.698 130.59C116.325 131.709 115.928 133.23 115.928 134.92H131.928ZM131.598 136.369C131.113 137.461 130.223 138.555 128.93 139.283C127.739 139.952 126.691 140.04 126.208 140.04V124.04C124.764 124.04 122.916 124.308 121.085 125.337C119.152 126.425 117.782 128.059 116.977 129.871L131.598 136.369ZM126.208 140.04H146.848V124.04H126.208V140.04ZM146.848 140.04C147.142 140.04 145.487 140.121 143.988 138.435L155.947 127.805C153.168 124.679 149.433 124.04 146.848 124.04V140.04ZM144.311 138.777C144.379 138.846 144.157 138.643 143.874 138.183C143.636 137.796 142.928 136.545 142.928 134.68H158.928C158.928 132.415 158.059 130.704 157.501 129.797C156.898 128.817 156.196 128.034 155.624 127.463L144.311 138.777ZM142.928 134.68C142.928 134.091 143.055 132.9 143.881 131.624C144.751 130.28 145.942 129.54 146.874 129.202L152.341 144.238C154.153 143.58 156.004 142.34 157.314 140.316C158.58 138.36 158.928 136.309 158.928 134.68H142.928ZM146.874 129.202C146.405 129.372 145.768 129.558 144.931 129.738L148.284 145.382C149.687 145.082 151.05 144.708 152.341 144.238L146.874 129.202ZM145.391 129.653C143.481 129.947 141.63 130.551 139.897 131.497L147.558 145.543C147.585 145.529 147.654 145.493 147.824 145.467L145.391 129.653ZM140.417 131.237C138.505 132.106 136.83 133.561 135.728 135.565C134.686 137.459 134.408 139.382 134.408 140.92H150.408C150.408 141.258 150.349 142.181 149.747 143.275C149.085 144.479 148.07 145.334 147.038 145.803L140.417 131.237ZM134.408 140.92V202.12H150.408V140.92H134.408ZM134.408 202.12C134.408 205.558 135.893 209.48 139.897 211.663L147.558 197.617C148.424 198.089 149.267 198.875 149.824 199.938C150.342 200.927 150.408 201.762 150.408 202.12H134.408ZM140.417 211.923C141.83 212.565 143.302 213.047 144.809 213.395L148.406 197.805C147.833 197.673 147.385 197.515 147.038 197.357L140.417 211.923ZM145.476 213.52C146.158 213.617 146.606 213.741 146.874 213.838L152.341 198.802C150.849 198.259 149.297 197.903 147.739 197.68L145.476 213.52ZM146.874 213.838C145.942 213.5 144.751 212.76 143.881 211.416C143.055 210.14 142.928 208.949 142.928 208.36H158.928C158.928 206.731 158.58 204.68 157.314 202.724C156.004 200.7 154.153 199.46 152.341 198.802L146.874 213.838ZM142.928 208.36C142.928 207.407 143.115 206.65 143.278 206.16C143.443 205.666 143.628 205.31 143.742 205.111C143.955 204.737 144.102 204.598 143.988 204.725L155.947 215.355C156.473 214.762 157.1 213.983 157.633 213.049C158.104 212.225 158.928 210.558 158.928 208.36H142.928ZM144.311 204.383C145.082 203.611 145.878 203.26 146.355 203.114C146.798 202.977 147.011 203 146.848 203V219C149.2 219 152.804 218.518 155.624 215.697L144.311 204.383ZM146.848 203H126.208V219H146.848V203ZM126.208 203C126.691 203 127.739 203.088 128.93 203.757C130.223 204.485 131.113 205.579 131.598 206.671L116.977 213.169C117.782 214.981 119.152 216.615 121.085 217.703C122.916 218.732 124.764 219 126.208 219V203ZM131.877 207.39C131.838 207.274 131.844 207.27 131.862 207.361C131.879 207.444 131.928 207.713 131.928 208.12H115.928C115.928 209.81 116.325 211.331 116.698 212.45L131.877 207.39ZM131.928 208.12C131.928 209.823 131.307 211.341 130.414 212.458C129.624 213.446 128.796 213.91 128.465 214.075L121.31 199.765C119.448 200.695 115.928 203.243 115.928 208.12H131.928ZM129.127 213.704C129.102 213.72 129.158 213.679 129.346 213.623L124.749 198.297C123.337 198.721 121.953 199.32 120.648 200.136L129.127 213.704ZM129.781 213.478C130.46 213.232 131.13 213.019 131.792 212.838L127.583 197.402C126.485 197.701 125.395 198.048 124.314 198.442L129.781 213.478ZM131.792 212.838C132.841 212.552 134.351 212.084 135.723 211.26L127.492 197.54C127.592 197.48 127.678 197.433 127.746 197.397C127.814 197.362 127.87 197.335 127.91 197.316C127.988 197.28 128.029 197.266 128.019 197.269C128.01 197.273 127.97 197.287 127.893 197.311C127.817 197.335 127.715 197.366 127.583 197.402L131.792 212.838ZM139.608 204.4V173.44H123.608V204.4H139.608ZM129.078 165.851C129.01 165.873 129.076 165.847 129.242 165.811C129.33 165.791 129.477 165.761 129.673 165.735C129.862 165.71 130.157 165.68 130.528 165.68V181.68C132.14 181.68 133.539 181.229 134.137 181.029L129.078 165.851ZM130.528 165.68H93.9275V181.68H130.528V165.68ZM85.9275 173.68V202.12H101.928V173.68H85.9275ZM85.9275 202.12C85.9275 205.558 87.4134 209.48 91.4167 211.663L99.0783 197.617C99.9436 198.089 100.787 198.875 101.344 199.938C101.862 200.927 101.928 201.762 101.928 202.12H85.9275ZM91.9371 211.923C93.3498 212.565 94.8221 213.047 96.3286 213.395L99.9264 197.805C99.3529 197.673 98.9052 197.515 98.5579 197.357L91.9371 211.923ZM96.9961 213.52C97.6783 213.617 98.1265 213.741 98.3936 213.838L103.861 198.802C102.369 198.259 100.817 197.903 99.2589 197.68L96.9961 213.52ZM98.3936 213.838C97.4622 213.5 96.2707 212.76 95.4009 211.416C94.5752 210.14 94.4475 208.949 94.4475 208.36H110.448C110.448 206.731 110.1 204.68 108.834 202.724C107.524 200.7 105.673 199.46 103.861 198.802L98.3936 213.838ZM94.4475 208.36C94.4475 207.407 94.6348 206.65 94.798 206.16C94.9627 205.666 95.1476 205.31 95.2616 205.111C95.4751 204.737 95.6216 204.598 95.5082 204.725L107.467 215.355C107.993 214.762 108.62 213.983 109.153 213.049C109.624 212.225 110.448 210.558 110.448 208.36H94.4475ZM95.8307 204.383C96.6024 203.611 97.3982 203.26 97.8748 203.114C98.3177 202.977 98.5314 203 98.3675 203V219C100.72 219 104.324 218.518 107.144 215.697L95.8307 204.383ZM98.3675 203H77.7275V219H98.3675V203ZM77.7275 203C78.2113 203 79.2593 203.088 80.4496 203.757C81.7427 204.485 82.6329 205.579 83.118 206.671L68.497 213.169C69.3021 214.981 70.6723 216.615 72.6054 217.703C74.4357 218.732 76.2837 219 77.7275 219V203ZM83.397 207.39C83.3581 207.274 83.3638 207.27 83.3821 207.361C83.3988 207.444 83.4475 207.713 83.4475 208.12H67.4475C67.4475 209.81 67.8449 211.331 68.218 212.45L83.397 207.39ZM162.18 173.8L169.8 176.238L162.18 173.8ZM167.58 163.36L161.366 158.322L161.325 158.373L161.284 158.425L167.58 163.36ZM176.22 156.4L179.798 163.555L179.831 163.539L179.864 163.522L176.22 156.4ZM198.54 156.52L194.058 163.146L194.126 163.192L194.194 163.237L198.54 156.52ZM204.78 163.36L197.666 167.019L197.707 167.098L197.749 167.177L204.78 163.36ZM207.78 172.6L199.861 173.731L199.863 173.745L199.865 173.758L207.78 172.6ZM208.62 182.2H216.62V182.097L216.618 181.995L208.62 182.2ZM207.06 184.24L208.277 192.147H208.277L207.06 184.24ZM171.3 184.48V176.48H162.816L163.314 184.95L171.3 184.48ZM172.5 192.4L164.739 194.34L164.767 194.454L164.799 194.566L172.5 192.4ZM175.5 199.24L168.762 203.552L168.822 203.646L168.885 203.738L175.5 199.24ZM180.54 204.16L176.228 210.898L176.383 210.997L176.543 211.089L180.54 204.16ZM194.94 205.36L196.64 213.177L196.801 213.142L196.96 213.101L194.94 205.36ZM199.5 203.92L202.471 211.348L202.68 211.264L202.883 211.169L199.5 203.92ZM202.5 202.48L206.078 209.635L206.206 209.572L206.331 209.503L202.5 202.48ZM205.14 206.44L210.599 212.288L210.7 212.194L210.797 212.097L205.14 206.44ZM200.22 209.68L203.682 216.892L203.74 216.864L203.798 216.835L200.22 209.68ZM193.14 211.96L191.527 204.124L191.391 204.152L191.256 204.185L193.14 211.96ZM173.7 210.76L170.276 217.99L170.312 218.007L170.348 218.024L173.7 210.76ZM166.14 205L159.995 210.121L166.14 205ZM161.7 196.72L154.038 199.019L154.046 199.046L154.054 199.073L161.7 196.72ZM196.74 178.24L197.004 186.236L204.994 185.972L204.736 177.982L196.74 178.24ZM196.14 171.28L188.221 172.411L188.224 172.432L188.227 172.452L196.14 171.28ZM194.34 165.52L187.331 169.375L194.34 165.52ZM174.78 165.64L167.853 161.638L167.839 161.663L167.825 161.688L174.78 165.64ZM171.3 179.08L163.314 178.61L162.799 187.365L171.564 187.076L171.3 179.08ZM168.26 186.76C168.26 182.862 168.797 179.372 169.8 176.238L154.561 171.362C153.004 176.228 152.26 181.378 152.26 186.76H168.26ZM169.8 176.238C170.824 173.037 172.207 170.426 173.877 168.295L161.284 158.425C158.314 162.214 156.097 166.563 154.561 171.362L169.8 176.238ZM173.794 168.398C175.487 166.311 177.473 164.718 179.798 163.555L172.643 149.245C168.248 151.442 164.474 154.489 161.366 158.322L173.794 168.398ZM179.864 163.522C182.091 162.383 184.628 161.76 187.62 161.76V145.76C182.293 145.76 177.23 146.897 172.577 149.278L179.864 163.522ZM187.62 161.76C191.183 161.76 193.084 162.488 194.058 163.146L203.023 149.894C198.557 146.872 193.177 145.76 187.62 145.76V161.76ZM194.194 163.237C195.776 164.26 196.885 165.5 197.666 167.019L211.895 159.701C209.796 155.62 206.745 152.3 202.886 149.803L194.194 163.237ZM197.749 167.177C198.787 169.088 199.506 171.25 199.861 173.731L215.7 171.469C215.094 167.23 213.813 163.232 211.811 159.543L197.749 167.177ZM199.865 173.758C200.301 176.742 200.552 179.623 200.623 182.405L216.618 181.995C216.529 178.537 216.219 175.018 215.696 171.442L199.865 173.758ZM200.62 182.2C200.62 181.733 200.714 180.269 201.875 178.75C203.144 177.091 204.816 176.491 205.844 176.333L208.277 192.147C210.345 191.829 212.796 190.809 214.585 188.47C216.267 186.271 216.62 183.867 216.62 182.2H200.62ZM205.844 176.333C205.231 176.427 204.559 176.48 203.82 176.48V192.48C205.322 192.48 206.809 192.373 208.277 192.147L205.844 176.333ZM203.82 176.48H171.3V192.48H203.82V176.48ZM163.314 184.95C163.502 188.15 163.975 191.283 164.739 194.34L180.261 190.46C179.746 188.397 179.418 186.25 179.287 184.01L163.314 184.95ZM164.799 194.566C165.707 197.795 167.01 200.814 168.762 203.552L182.238 194.928C181.431 193.666 180.733 192.125 180.202 190.234L164.799 194.566ZM168.885 203.738C170.842 206.616 173.299 209.024 176.228 210.898L184.853 197.422C183.781 196.736 182.879 195.864 182.116 194.742L168.885 203.738ZM176.543 211.089C179.993 213.08 183.807 213.96 187.74 213.96V197.96C186.234 197.96 185.248 197.64 184.538 197.231L176.543 211.089ZM187.74 213.96C190.987 213.96 194.019 213.747 196.64 213.177L193.241 197.543C192.182 197.773 190.414 197.96 187.74 197.96V213.96ZM196.96 213.101C198.988 212.572 200.854 211.995 202.471 211.348L196.529 196.492C195.747 196.805 194.573 197.188 192.921 197.619L196.96 213.101ZM202.883 211.169C204.121 210.592 205.191 210.079 206.078 209.635L198.923 195.325C198.21 195.681 197.28 196.128 196.117 196.671L202.883 211.169ZM206.331 209.503C206.23 209.558 206.074 209.628 205.87 209.681C205.664 209.735 205.455 209.76 205.26 209.76V193.76C202.902 193.76 200.671 194.365 198.669 195.457L206.331 209.503ZM205.26 209.76C204.99 209.76 203.313 209.744 201.578 208.381C199.475 206.729 198.94 204.456 198.94 203.08H214.94C214.94 200.824 214.125 197.891 211.463 195.799C209.168 193.996 206.65 193.76 205.26 193.76V209.76ZM198.94 203.08C198.94 202.02 199.253 201.269 199.438 200.922C199.609 200.603 199.702 200.564 199.483 200.783L210.797 212.097C212.593 210.301 214.94 207.247 214.94 203.08H198.94ZM199.682 200.592C199.222 201.02 198.297 201.697 196.643 202.525L203.798 216.835C206.303 215.583 208.658 214.1 210.599 212.288L199.682 200.592ZM196.758 202.468C195.473 203.085 193.76 203.665 191.527 204.124L194.754 219.796C197.96 219.135 200.968 218.195 203.682 216.892L196.758 202.468ZM191.256 204.185C189.285 204.663 187.122 204.92 184.74 204.92V220.92C188.279 220.92 191.716 220.537 195.025 219.735L191.256 204.185ZM184.74 204.92C181.394 204.92 178.906 204.352 177.053 203.496L170.348 218.024C174.735 220.048 179.607 220.92 184.74 220.92V204.92ZM177.125 203.53C175.052 202.548 173.487 201.32 172.286 199.879L159.995 210.121C162.794 213.48 166.268 216.092 170.276 217.99L177.125 203.53ZM172.286 199.879C170.995 198.329 170.009 196.52 169.347 194.367L154.054 199.073C155.312 203.16 157.286 206.871 159.995 210.121L172.286 199.879ZM169.363 194.421C168.633 191.989 168.26 189.445 168.26 186.76H152.26C152.26 190.955 152.847 195.051 154.038 199.019L169.363 194.421ZM204.736 177.982C204.648 175.236 204.424 172.608 204.054 170.108L188.227 172.452C188.496 174.272 188.673 176.284 188.744 178.498L204.736 177.982ZM204.06 170.149C203.635 167.173 202.792 164.286 201.35 161.665L187.331 169.375C187.649 169.954 188.006 170.907 188.221 172.411L204.06 170.149ZM201.35 161.665C199.717 158.696 197.349 156.379 194.469 154.734L186.531 168.626C187.012 168.901 187.203 169.144 187.331 169.375L201.35 161.665ZM194.469 154.734C191.188 152.859 187.477 152.24 183.9 152.24V168.24C185.764 168.24 186.453 168.581 186.531 168.626L194.469 154.734ZM183.9 152.24C176.907 152.24 171.293 155.684 167.853 161.638L181.707 169.642C182.182 168.82 182.552 168.559 182.696 168.474C182.826 168.397 183.141 168.24 183.9 168.24V152.24ZM167.825 161.688C165.047 166.577 163.682 172.349 163.314 178.61L179.287 179.55C179.558 174.931 180.514 171.743 181.736 169.592L167.825 161.688ZM171.564 187.076L197.004 186.236L196.476 170.244L171.036 171.084L171.564 187.076ZM215.754 207.52L220.191 214.176L220.299 214.105L220.404 214.03L215.754 207.52ZM217.674 206.44L220.923 213.75L217.674 206.44ZM219.834 205.6L222.364 213.189L222.73 213.067L223.083 212.91L219.834 205.6ZM221.394 204.88L224.971 212.035L226.504 211.269L227.589 209.942L221.394 204.88ZM238.554 183.88L244.749 188.942L248.96 183.788L244.658 178.709L238.554 183.88ZM221.274 163.48L227.378 158.309L227.075 157.951L226.732 157.632L221.274 163.48ZM218.154 161.32L215.183 168.748L215.301 168.795L215.42 168.838L218.154 161.32ZM215.994 160.72L214.862 168.64L214.932 168.65L215.001 168.658L215.994 160.72ZM214.674 160.36L209.017 166.017L209.935 166.935L211.096 167.515L214.674 160.36ZM239.034 156.88L231.681 160.031L231.861 160.452L232.088 160.849L239.034 156.88ZM238.674 159.52L234.024 153.01L233.781 153.183L233.552 153.374L238.674 159.52ZM236.874 160.6L233.625 153.29L233.459 153.363L233.296 153.445L236.874 160.6ZM234.834 161.56L237.643 169.051L237.865 168.967L238.083 168.87L234.834 161.56ZM233.394 162.16L229.816 155.005L221.543 159.141L226.828 166.731L233.394 162.16ZM244.674 178.36L238.108 182.931L244.276 191.789L250.957 183.312L244.674 178.36ZM255.834 164.2L262.117 169.152L264.306 166.374L263.725 162.885L255.834 164.2ZM254.514 162.28L250.274 169.064L250.751 169.362L251.265 169.59L254.514 162.28ZM252.354 161.32L254.653 153.657L254.653 153.657L252.354 161.32ZM250.194 160.48L245.544 166.99L246.055 167.355L246.616 167.635L250.194 160.48ZM272.034 156.88L264.681 160.031L264.861 160.452L265.088 160.849L272.034 156.88ZM267.594 161.56L270.403 169.051L270.625 168.967L270.843 168.87L267.594 161.56ZM266.154 162.16L262.576 155.005L261.044 155.77L259.961 157.096L266.154 162.16ZM248.394 183.88L242.201 178.816L237.907 184.067L242.385 189.162L248.394 183.88ZM264.954 202.72L258.945 208.002L258.96 208.018L258.974 208.035L264.954 202.72ZM268.434 205.48L265.562 212.947L268.434 205.48ZM271.074 206.2L271.957 198.249H271.957L271.074 206.2ZM272.754 206.68L268.638 213.54L269.187 213.87L269.783 214.108L272.754 206.68ZM248.634 210.16L241.281 213.311L241.461 213.732L241.688 214.129L248.634 210.16ZM248.994 207.64L253.431 214.296L253.787 214.059L254.115 213.786L248.994 207.64ZM250.674 206.56L254.251 213.715L254.591 213.545L254.914 213.344L250.674 206.56ZM252.474 205.48L248.896 198.325L248.697 198.424L248.505 198.534L252.474 205.48ZM253.794 204.88L256.324 212.469L266.57 209.054L260.316 200.248L253.794 204.88ZM242.034 188.32L248.556 183.688L242.091 174.583L235.55 183.634L242.034 188.32ZM231.714 202.6L225.23 197.914L223.714 200.012V202.6H231.714ZM232.674 204.88L228.434 211.664L228.608 211.773L228.789 211.873L232.674 204.88ZM234.954 205.84L232.655 213.503L233.016 213.611L233.385 213.685L234.954 205.84ZM237.114 206.56L233.536 213.715L233.699 213.797L233.865 213.87L237.114 206.56ZM215.394 210.16L208.041 213.311L208.221 213.732L208.448 214.129L215.394 210.16ZM223.034 208.6C223.034 210.109 222.551 211.446 221.87 212.468C221.244 213.406 220.553 213.935 220.191 214.176L211.316 200.864C209.669 201.962 207.034 204.464 207.034 208.6H223.034ZM220.404 214.03C220.467 213.984 220.626 213.882 220.923 213.75L214.425 199.13C213.281 199.638 212.16 200.256 211.104 201.01L220.404 214.03ZM220.923 213.75C221.417 213.531 221.897 213.345 222.364 213.189L217.304 198.011C216.331 198.335 215.371 198.709 214.425 199.13L220.923 213.75ZM223.083 212.91C223.815 212.585 224.477 212.283 224.971 212.035L217.816 197.725C217.671 197.797 217.293 197.975 216.585 198.29L223.083 212.91ZM227.589 209.942L244.749 188.942L232.359 178.818L215.199 199.818L227.589 209.942ZM244.658 178.709L227.378 158.309L215.169 168.651L232.449 189.051L244.658 178.709ZM226.732 157.632C225.249 156.247 223.271 154.668 220.888 153.802L215.42 168.838C215.215 168.764 215.085 168.697 215.033 168.669C214.981 168.641 214.983 168.638 215.04 168.678C215.164 168.763 215.42 168.96 215.815 169.328L226.732 157.632ZM221.125 153.892C219.888 153.397 218.488 152.97 216.986 152.782L215.001 168.658C214.878 168.643 214.832 168.627 214.873 168.638C214.912 168.649 215.014 168.68 215.183 168.748L221.125 153.892ZM217.125 152.8C217.099 152.797 217.183 152.807 217.349 152.852C217.506 152.895 217.833 152.995 218.251 153.205L211.096 167.515C212.498 168.217 213.886 168.5 214.862 168.64L217.125 152.8ZM220.331 154.703C221.124 155.496 221.569 156.299 221.812 156.837C222.056 157.381 222.172 157.829 222.226 158.084C222.329 158.565 222.314 158.822 222.314 158.68H206.314C206.314 159.418 206.358 160.395 206.581 161.436C206.766 162.3 207.29 164.29 209.017 166.017L220.331 154.703ZM222.314 158.68C222.314 159.279 222.193 160.194 221.681 161.189C221.154 162.212 220.403 162.949 219.68 163.417C218.456 164.208 217.64 164.04 218.394 164.04V148.04C216.427 148.04 213.571 148.312 210.988 149.983C207.804 152.043 206.314 155.366 206.314 158.68H222.314ZM218.394 164.04H237.234V148.04H218.394V164.04ZM237.234 164.04C237.03 164.04 236.146 164.025 235.021 163.499C233.706 162.886 232.405 161.722 231.681 160.031L246.387 153.729C244.234 148.705 239.324 148.04 237.234 148.04V164.04ZM232.088 160.849C231.946 160.601 231.514 159.75 231.514 158.44H247.514C247.514 156.17 246.762 154.279 245.98 152.911L232.088 160.849ZM231.514 158.44C231.514 156.203 232.489 154.681 232.989 154.038C233.499 153.382 233.96 153.056 234.024 153.01L243.324 166.03C243.947 165.584 244.828 164.878 245.619 163.862C246.399 162.859 247.514 160.997 247.514 158.44H231.514ZM233.552 153.374C233.663 153.282 233.736 153.237 233.748 153.23C233.76 153.223 233.723 153.246 233.625 153.29L240.123 167.91C241.351 167.365 242.623 166.643 243.795 165.666L233.552 153.374ZM233.296 153.445C232.775 153.705 232.205 153.974 231.585 154.249L238.083 168.87C238.903 168.506 239.693 168.135 240.451 167.755L233.296 153.445ZM232.025 154.069C231.313 154.336 230.519 154.653 229.816 155.005L236.971 169.315C236.912 169.345 236.932 169.333 237.071 169.275C237.2 169.221 237.387 169.147 237.643 169.051L232.025 154.069ZM226.828 166.731L238.108 182.931L251.239 173.789L239.959 157.589L226.828 166.731ZM250.957 183.312L262.117 169.152L249.551 159.248L238.391 173.408L250.957 183.312ZM263.725 162.885C263.242 159.985 261.532 156.645 257.763 154.97L251.265 169.59C250.296 169.16 249.421 168.448 248.791 167.532C248.203 166.676 248.008 165.906 247.943 165.515L263.725 162.885ZM258.754 155.496C257.448 154.68 256.064 154.081 254.653 153.657L250.055 168.983C250.244 169.039 250.299 169.08 250.274 169.064L258.754 155.496ZM254.653 153.657C254.222 153.528 253.939 153.408 253.771 153.325L246.616 167.635C247.728 168.192 248.886 168.632 250.055 168.983L254.653 153.657ZM254.844 153.97C255.639 154.538 256.347 155.348 256.813 156.347C257.26 157.304 257.354 158.15 257.354 158.68H241.354C241.354 161.583 242.518 164.829 245.544 166.99L254.844 153.97ZM257.354 158.68C257.354 159.279 257.233 160.194 256.721 161.189C256.194 162.212 255.443 162.949 254.72 163.417C253.496 164.208 252.68 164.04 253.434 164.04V148.04C251.467 148.04 248.611 148.312 246.028 149.983C242.844 152.043 241.354 155.366 241.354 158.68H257.354ZM253.434 164.04H270.234V148.04H253.434V164.04ZM270.234 164.04C270.03 164.04 269.146 164.025 268.021 163.499C266.706 162.886 265.405 161.722 264.681 160.031L279.387 153.729C277.234 148.705 272.324 148.04 270.234 148.04V164.04ZM265.088 160.849C264.946 160.601 264.514 159.75 264.514 158.44H280.514C280.514 156.17 279.762 154.279 278.98 152.911L265.088 160.849ZM264.514 158.44C264.514 156.203 265.489 154.681 265.989 154.038C266.5 153.382 266.96 153.056 267.024 153.01L276.324 166.03C276.947 165.584 277.828 164.878 278.619 163.862C279.399 162.859 280.514 160.997 280.514 158.44H264.514ZM267.024 153.01C266.96 153.056 266.801 153.158 266.505 153.29L273.003 167.91C274.146 167.402 275.267 166.784 276.324 166.03L267.024 153.01ZM266.505 153.29C265.785 153.61 265.065 153.93 264.345 154.249L270.843 168.87C271.563 168.55 272.283 168.23 273.003 167.91L266.505 153.29ZM264.785 154.069C264.073 154.336 263.279 154.653 262.576 155.005L269.731 169.315C269.672 169.345 269.692 169.333 269.831 169.275C269.96 169.221 270.147 169.147 270.403 169.051L264.785 154.069ZM259.961 157.096L242.201 178.816L254.587 188.944L272.347 167.224L259.961 157.096ZM242.385 189.162L258.945 208.002L270.962 197.438L254.402 178.598L242.385 189.162ZM258.974 208.035C260.568 209.827 262.754 211.867 265.562 212.947L271.306 198.013C271.536 198.102 271.684 198.185 271.747 198.223C271.811 198.261 271.813 198.268 271.755 198.222C271.627 198.121 271.352 197.876 270.933 197.405L258.974 208.035ZM265.562 212.947C266.938 213.476 268.528 213.966 270.19 214.151L271.957 198.249C272.099 198.265 272.116 198.279 271.979 198.242C271.848 198.206 271.627 198.137 271.306 198.013L265.562 212.947ZM270.19 214.151C270.208 214.153 270.075 214.14 269.836 214.072C269.602 214.005 269.165 213.856 268.638 213.54L276.87 199.82C275.089 198.752 273.253 198.393 271.957 198.249L270.19 214.151ZM269.783 214.108C267.135 213.049 266.036 210.936 265.67 209.911C265.484 209.39 265.413 208.978 265.385 208.759C265.354 208.529 265.354 208.386 265.354 208.36H281.354C281.354 207.455 281.277 206.039 280.738 204.529C280.172 202.944 278.773 200.471 275.725 199.252L269.783 214.108ZM265.354 208.36C265.354 207.761 265.474 206.846 265.987 205.851C266.514 204.828 267.265 204.091 267.988 203.623C269.211 202.832 270.027 203 269.274 203V219C271.24 219 274.096 218.728 276.68 217.057C279.863 214.997 281.354 211.674 281.354 208.36H265.354ZM269.274 203H250.554V219H269.274V203ZM250.554 203C250.79 203 251.566 203.026 252.56 203.461C253.677 203.949 254.815 204.852 255.58 206.191L241.688 214.129C244.057 218.275 248.255 219 250.554 219V203ZM255.987 207.009C256.063 207.186 256.274 207.747 256.274 208.6H240.274C240.274 210.413 240.724 212.014 241.281 213.311L255.987 207.009ZM256.274 208.6C256.274 210.564 255.509 212.047 254.854 212.92C254.246 213.73 253.642 214.156 253.431 214.296L244.556 200.984C243.593 201.626 240.274 204.033 240.274 208.6H256.274ZM254.115 213.786C254.059 213.833 254.085 213.799 254.251 213.715L247.096 199.405C245.982 199.961 244.889 200.647 243.872 201.494L254.115 213.786ZM254.914 213.344C255.479 212.991 255.988 212.686 256.443 212.426L248.505 198.534C247.84 198.914 247.148 199.329 246.434 199.776L254.914 213.344ZM256.051 212.635C256.321 212.501 256.495 212.418 256.594 212.373C256.642 212.351 256.649 212.349 256.622 212.36C256.608 212.366 256.577 212.378 256.532 212.396C256.488 212.412 256.417 212.438 256.324 212.469L251.264 197.291C250.403 197.578 249.473 198.036 248.896 198.325L256.051 212.635ZM260.316 200.248L248.556 183.688L235.511 192.952L247.271 209.512L260.316 200.248ZM235.55 183.634L225.23 197.914L238.198 207.286L248.518 193.006L235.55 183.634ZM223.714 202.6C223.714 205.042 224.452 209.176 228.434 211.664L236.914 198.096C238.123 198.852 238.909 199.913 239.327 200.906C239.7 201.792 239.714 202.453 239.714 202.6H223.714ZM228.789 211.873C230.019 212.557 231.311 213.1 232.655 213.503L237.253 198.177C236.996 198.1 236.769 198.003 236.559 197.887L228.789 211.873ZM233.385 213.685C233.583 213.724 233.614 213.754 233.536 213.715L240.691 199.405C239.334 198.726 237.924 198.276 236.523 197.995L233.385 213.685ZM233.865 213.87C232.918 213.45 231.835 212.651 231.064 211.366C230.328 210.14 230.194 209 230.194 208.36H246.194C246.194 206.84 245.879 204.96 244.784 203.134C243.653 201.249 242.029 199.99 240.363 199.25L233.865 213.87ZM230.194 208.36C230.194 207.761 230.314 206.846 230.827 205.851C231.354 204.828 232.105 204.091 232.828 203.623C234.051 202.832 234.867 203 234.114 203V219C236.08 219 238.936 218.728 241.52 217.057C244.703 214.997 246.194 211.674 246.194 208.36H230.194ZM234.114 203H217.314V219H234.114V203ZM217.314 203C217.55 203 218.326 203.026 219.32 203.461C220.437 203.949 221.575 204.852 222.34 206.191L208.448 214.129C210.817 218.275 215.015 219 217.314 219V203ZM222.747 207.009C222.823 207.186 223.034 207.747 223.034 208.6H207.034C207.034 210.413 207.484 212.014 208.041 213.311L222.747 207.009ZM280.682 189.76L287.107 194.527L287.107 194.527L280.682 189.76ZM288.002 183.64L291.728 190.719L291.8 190.681L291.872 190.642L288.002 183.64ZM298.322 179.8L296.57 171.994L296.553 171.998L296.535 172.002L298.322 179.8ZM310.322 178L310.948 185.976L318.322 185.397V178H310.322ZM309.962 169.6L317.9 168.608L317.9 168.608L309.962 169.6ZM308.282 164.32L315.292 160.465L315.219 160.333L315.142 160.204L308.282 164.32ZM304.322 161.32L302.023 168.983L302.245 169.049L302.469 169.102L304.322 161.32ZM294.482 160.84L295.014 168.822L295.278 168.805L295.54 168.77L294.482 160.84ZM291.722 161.44L288.144 154.285L287.946 154.384L287.753 154.494L291.722 161.44ZM290.642 162.88L282.881 160.94L282.781 161.34L282.723 161.749L290.642 162.88ZM290.882 167.44L284.482 172.24L285.168 173.154L286.082 173.84L290.882 167.44ZM290.522 170.44L284.207 165.528L284.164 165.584L284.122 165.64L290.522 170.44ZM288.602 172.24L293.04 178.896L293.115 178.846L293.19 178.794L288.602 172.24ZM286.082 173.44L283.552 165.851L283.45 165.885L283.348 165.922L286.082 173.44ZM280.202 172.36L272.668 175.051L272.701 175.142L272.735 175.232L280.202 172.36ZM282.362 163.84L276.827 158.064L276.766 158.123L276.705 158.183L282.362 163.84ZM289.202 158.8L285.3 151.816L285.255 151.841L285.21 151.867L289.202 158.8ZM297.602 155.2L299.94 162.851L300.036 162.821L300.132 162.789L297.602 155.2ZM313.082 155.32L309.504 162.475L309.558 162.502L309.612 162.528L313.082 155.32ZM318.002 159.4L311.346 163.838L311.346 163.838L318.002 159.4ZM320.282 165.16L312.416 166.617L312.421 166.644L312.426 166.671L320.282 165.16ZM320.882 205.84H312.882V213.84H320.882V205.84ZM323.642 205.36L326.172 212.949L326.449 212.857L326.719 212.745L323.642 205.36ZM328.202 205.24L321.802 210.04L322.143 210.495L322.545 210.897L328.202 205.24ZM327.722 208.12L333.379 213.777L333.545 213.611L333.701 213.435L327.722 208.12ZM324.962 210.16L320.846 203.3L320.74 203.364L320.636 203.431L324.962 210.16ZM321.002 212.08L323.768 219.587L321.002 212.08ZM310.322 204.16H318.322V181.627L304.113 199.115L310.322 204.16ZM303.482 210.52L307.819 217.242L307.895 217.194L307.969 217.143L303.482 210.52ZM286.802 211.6L283.685 218.968L283.734 218.989L283.784 219.009L286.802 211.6ZM281.642 208.24L275.663 213.555L275.819 213.731L275.985 213.897L281.642 208.24ZM278.762 203.68L271.173 206.21L271.247 206.433L271.334 206.651L278.762 203.68ZM291.602 202.96L298.031 198.198L291.602 202.96ZM305.522 204.4L301.152 197.699L301.083 197.744L301.016 197.79L305.522 204.4ZM310.322 199.72L316.85 204.344L318.322 202.266V199.72H310.322ZM310.322 183.52H318.322V175.229L310.037 175.525L310.322 183.52ZM303.242 184.24L304.266 192.174L304.391 192.158L304.516 192.138L303.242 184.24ZM296.402 185.92L299.274 193.387L296.402 185.92ZM285.922 198.88C285.922 196.702 286.453 195.409 287.107 194.527L274.257 184.993C271.232 189.071 269.922 193.858 269.922 198.88H285.922ZM287.107 194.527C288.155 193.114 289.629 191.824 291.728 190.719L284.276 176.561C280.295 178.656 276.889 181.446 274.257 184.993L287.107 194.527ZM291.872 190.642C294.177 189.368 296.901 188.333 300.109 187.598L296.535 172.002C292.063 173.027 287.907 174.552 284.133 176.638L291.872 190.642ZM300.074 187.606C303.617 186.811 307.24 186.266 310.948 185.976L309.697 170.024C305.245 170.374 300.868 171.029 296.57 171.994L300.074 187.606ZM318.322 178V175.36H302.322V178H318.322ZM318.322 175.36C318.322 173.106 318.181 170.854 317.9 168.608L302.024 170.592C302.223 172.186 302.322 173.774 302.322 175.36H318.322ZM317.9 168.608C317.542 165.744 316.688 163.004 315.292 160.465L301.272 168.175C301.636 168.836 301.902 169.616 302.024 170.592L317.9 168.608ZM315.142 160.204C313.173 156.923 310.129 154.479 306.175 153.538L302.469 169.102C302.277 169.057 302.004 168.945 301.741 168.747C301.49 168.556 301.402 168.402 301.422 168.436L315.142 160.204ZM306.621 153.657C304.308 152.964 301.934 152.6 299.522 152.6V168.6C300.31 168.6 301.136 168.716 302.023 168.983L306.621 153.657ZM299.522 152.6C297.237 152.6 295.146 152.681 293.425 152.91L295.54 168.77C296.219 168.679 297.488 168.6 299.522 168.6V152.6ZM293.95 152.858C292.314 152.967 290.168 153.273 288.144 154.285L295.3 168.595C295.076 168.707 294.897 168.774 294.785 168.812C294.671 168.85 294.603 168.865 294.592 168.867C294.579 168.87 294.607 168.864 294.682 168.854C294.756 168.844 294.866 168.832 295.014 168.822L293.95 152.858ZM287.753 154.494C285.251 155.924 283.556 158.239 282.881 160.94L298.403 164.82C298.251 165.431 297.953 166.146 297.432 166.84C296.909 167.538 296.288 168.045 295.691 168.386L287.753 154.494ZM282.723 161.749C282.562 162.873 282.522 164.119 282.522 165.28H298.522C298.522 164.856 298.53 164.534 298.542 164.299C298.555 164.053 298.567 163.972 298.562 164.011L282.723 161.749ZM282.522 165.28C282.522 166.074 282.561 167.016 282.721 167.975C282.845 168.718 283.194 170.522 284.482 172.24L297.282 162.64C297.867 163.42 298.153 164.127 298.285 164.508C298.425 164.913 298.482 165.216 298.503 165.345C298.543 165.584 298.522 165.606 298.522 165.28H282.522ZM286.082 173.84C285.367 173.304 284.625 172.514 284.087 171.438C283.549 170.362 283.362 169.294 283.362 168.4H299.362C299.362 165.482 298.017 162.791 295.682 161.04L286.082 173.84ZM283.362 168.4C283.362 166.643 284.127 165.631 284.207 165.528L296.837 175.352C298.037 173.809 299.362 171.437 299.362 168.4H283.362ZM284.122 165.64C284.186 165.555 284.224 165.521 284.211 165.534C284.197 165.547 284.138 165.6 284.014 165.686L293.19 178.794C294.536 177.852 295.837 176.687 296.922 175.24L284.122 165.64ZM284.165 165.584C284.126 165.609 283.949 165.718 283.552 165.851L288.612 181.029C290.136 180.522 291.638 179.831 293.04 178.896L284.165 165.584ZM283.348 165.922C283.198 165.976 283.286 165.92 283.562 165.92V181.92C285.439 181.92 287.206 181.544 288.816 180.958L283.348 165.922ZM283.562 165.92C283.285 165.92 283.828 165.864 284.711 166.274C285.196 166.499 285.794 166.871 286.367 167.46C286.952 168.059 287.389 168.76 287.669 169.488L272.735 175.232C275.002 181.126 280.827 181.92 283.562 181.92V165.92ZM287.736 169.669C287.635 169.385 287.595 169.223 287.584 169.168C287.579 169.144 287.583 169.158 287.589 169.207C287.594 169.255 287.602 169.348 287.602 169.48H271.602C271.602 171.528 272.095 173.446 272.668 175.051L287.736 169.669ZM287.602 169.48C287.602 169.646 287.582 169.8 287.55 169.93C287.519 170.058 287.485 170.131 287.478 170.146C287.469 170.165 287.578 169.938 288.019 169.497L276.705 158.183C273.913 160.976 271.602 164.773 271.602 169.48H287.602ZM287.897 169.616C289.29 168.282 291.034 166.977 293.194 165.733L285.21 151.867C282.09 153.663 279.275 155.718 276.827 158.064L287.897 169.616ZM293.105 165.784C295.346 164.531 297.622 163.559 299.94 162.851L295.264 147.549C291.822 148.601 288.499 150.029 285.3 151.816L293.105 165.784ZM300.132 162.789C302.573 161.976 304.105 161.76 304.922 161.76V145.76C301.739 145.76 298.391 146.504 295.072 147.611L300.132 162.789ZM304.922 161.76C307.553 161.76 308.918 162.182 309.504 162.475L316.66 148.165C313.087 146.378 309.011 145.76 304.922 145.76V161.76ZM309.612 162.528C310.724 163.064 311.158 163.556 311.346 163.838L324.659 154.962C322.606 151.884 319.76 149.656 316.553 148.112L309.612 162.528ZM311.346 163.838C311.814 164.539 312.196 165.427 312.416 166.617L328.148 163.703C327.569 160.573 326.431 157.621 324.659 154.962L311.346 163.838ZM312.426 166.671C312.729 168.243 312.882 169.857 312.882 171.52H328.882C328.882 168.863 328.636 166.237 328.138 163.649L312.426 166.671ZM312.882 171.52V205.84H328.882V171.52H312.882ZM320.882 213.84C322.74 213.84 324.516 213.501 326.172 212.949L321.112 197.771C320.848 197.859 320.784 197.84 320.882 197.84V213.84ZM326.719 212.745C326.761 212.727 326.757 212.733 326.714 212.742C326.669 212.751 326.602 212.76 326.522 212.76V196.76C324.421 196.76 322.418 197.203 320.565 197.975L326.719 212.745ZM326.522 212.76C326.507 212.76 326.406 212.76 326.239 212.741C326.077 212.723 325.783 212.68 325.404 212.572C324.743 212.383 323.112 211.786 321.802 210.04L334.602 200.44C333.053 198.374 331.022 197.537 329.8 197.188C328.54 196.828 327.367 196.76 326.522 196.76V212.76ZM322.545 210.897C321.026 209.377 320.682 207.588 320.682 206.56H336.682C336.682 204.412 336.019 201.743 333.859 199.583L322.545 210.897ZM320.682 206.56C320.682 205.359 320.969 204.454 321.146 203.99C321.335 203.494 321.533 203.153 321.629 202.997C321.812 202.7 321.908 202.619 321.743 202.805L333.701 213.435C334.176 212.901 334.753 212.2 335.255 211.383C335.6 210.823 336.682 209.024 336.682 206.56H320.682ZM322.065 202.463C322.088 202.44 322.017 202.514 321.797 202.677C321.583 202.835 321.273 203.044 320.846 203.3L329.078 217.02C330.57 216.125 332.097 215.058 333.379 213.777L322.065 202.463ZM320.636 203.431C320.098 203.776 319.323 204.173 318.237 204.573L323.768 219.587C325.722 218.867 327.586 217.984 329.288 216.889L320.636 203.431ZM318.237 204.573C317.714 204.766 316.985 204.92 315.962 204.92V220.92C318.619 220.92 321.251 220.514 323.768 219.587L318.237 204.573ZM315.962 204.92C315.763 204.92 315.692 204.899 315.717 204.905C315.729 204.908 315.762 204.917 315.809 204.935C315.856 204.954 315.912 204.98 315.971 205.014L308.033 218.906C310.562 220.351 313.3 220.92 315.962 220.92V204.92ZM315.971 205.014C316.663 205.409 317.372 206.077 317.844 206.987C318.283 207.834 318.322 208.511 318.322 208.72H302.322C302.322 212.502 303.933 216.563 308.033 218.906L315.971 205.014ZM318.322 208.72V204.16H302.322V208.72H318.322ZM304.113 199.115C302.478 201.129 300.765 202.698 298.995 203.897L307.969 217.143C311.159 214.982 314.007 212.311 316.531 209.205L304.113 199.115ZM299.145 203.798C298.189 204.414 296.764 204.92 294.482 204.92V220.92C299.24 220.92 303.815 219.826 307.819 217.242L299.145 203.798ZM294.482 204.92C292.29 204.92 290.802 204.591 289.821 204.191L283.784 219.009C287.122 220.369 290.755 220.92 294.482 220.92V204.92ZM289.919 204.232C288.625 203.685 287.815 203.099 287.299 202.583L275.985 213.897C278.189 216.101 280.819 217.755 283.685 218.968L289.919 204.232ZM287.621 202.925C286.884 202.096 286.448 201.355 286.19 200.709L271.334 206.651C272.356 209.205 273.84 211.504 275.663 213.555L287.621 202.925ZM286.352 201.15C286.02 200.154 285.922 199.412 285.922 198.88H269.922C269.922 201.388 270.385 203.846 271.173 206.21L286.352 201.15ZM281.202 194.92C281.202 199.498 282.37 203.936 285.174 207.722L298.031 198.198C297.635 197.664 297.202 196.742 297.202 194.92H281.202ZM285.174 207.722C289.015 212.907 295.18 214.2 300.482 214.2V198.2C298.935 198.2 298.106 197.999 297.764 197.875C297.497 197.777 297.747 197.815 298.031 198.198L285.174 207.722ZM300.482 214.2C304.144 214.2 307.373 212.821 310.029 211.01L301.016 197.79C300.594 198.078 300.339 198.185 300.251 198.216C300.176 198.243 300.266 198.2 300.482 198.2V214.2ZM309.892 211.101C312.634 209.313 314.95 207.027 316.85 204.344L303.794 195.096C302.974 196.253 302.09 197.087 301.152 197.699L309.892 211.101ZM318.322 199.72V183.52H302.322V199.72H318.322ZM310.037 175.525C307.429 175.618 304.737 175.896 301.968 176.342L304.516 192.138C306.707 191.784 308.736 191.582 310.608 191.515L310.037 175.525ZM302.218 176.306C299.182 176.698 296.273 177.398 293.53 178.453L299.274 193.387C300.692 192.842 302.343 192.422 304.266 192.174L302.218 176.306ZM293.53 178.453C290.474 179.629 287.705 181.374 285.426 183.787L297.058 194.773C297.499 194.306 298.17 193.811 299.274 193.387L293.53 178.453ZM285.426 183.787C282.426 186.963 281.202 190.931 281.202 194.92H297.202C297.202 194.542 297.257 194.431 297.235 194.491C297.225 194.52 297.203 194.57 297.166 194.631C297.128 194.692 297.089 194.74 297.058 194.773L285.426 183.787ZM115.136 256.84H107.136V257.014L107.143 257.188L115.136 256.84ZM117.656 250.48L111.53 245.334L117.656 250.48ZM123.296 245.08L128.173 251.421L142.061 240.738L124.892 237.241L123.296 245.08ZM113.096 239.92L107.176 245.301L107.261 245.395L107.35 245.486L113.096 239.92ZM111.416 220L104.217 216.51H104.217L111.416 220ZM116.696 213.4L121.638 219.691L121.653 219.679L121.667 219.668L116.696 213.4ZM124.976 209.2L122.677 201.537H122.677L124.976 209.2ZM144.776 209.44L141.876 216.896L146.211 218.582L149.82 215.649L144.776 209.44ZM148.736 205.96L143.421 199.981L143.336 200.056L143.253 200.134L148.736 205.96ZM152.696 202.36L158.154 208.208V208.208L152.696 202.36ZM155.816 199.6L160.882 205.792L160.909 205.769L160.937 205.746L155.816 199.6ZM160.496 206.2L166.152 211.857H166.152L160.496 206.2ZM156.656 208.84L159.905 216.15L159.993 216.111L160.08 216.07L156.656 208.84ZM148.496 211.48L145.966 203.891L130.627 209.004L143.997 218.095L148.496 211.48ZM153.296 216.64L160.225 212.642V212.642L153.296 216.64ZM148.016 240.64L153.069 246.842L153.137 246.787L153.203 246.73L148.016 240.64ZM140.456 244.6L142.653 252.292L142.724 252.272L142.793 252.251L140.456 244.6ZM128.696 245.8V237.8H124.579L122.186 241.15L128.696 245.8ZM126.536 249.64L119.225 246.391L119.18 246.492L119.138 246.594L126.536 249.64ZM127.496 257.32L130.467 249.892L127.496 257.32ZM132.536 258.04L132.809 250.045L132.672 250.04H132.536V258.04ZM152.576 262.48L148.169 269.157L148.199 269.177L148.23 269.197L152.576 262.48ZM155.576 284.2L162.332 288.484V288.484L155.576 284.2ZM147.656 292.24L143.296 285.532L143.257 285.558L143.218 285.584L147.656 292.24ZM137.456 296.8L139.475 304.541L137.456 296.8ZM112.856 293.44L107.199 299.097L112.856 293.44ZM109.256 275.32L101.902 272.169L101.876 272.23L101.851 272.291L109.256 275.32ZM112.016 270.76L106.179 265.288L106.004 265.476L105.84 265.674L112.016 270.76ZM115.856 267.28L111.418 260.624L111.202 260.768L110.996 260.925L115.856 267.28ZM120.176 264.76L123.753 271.915L142.797 262.394L122.195 257.019L120.176 264.76ZM116.336 261.88L109.106 265.305L109.142 265.382L109.18 265.458L116.336 261.88ZM142.256 237.28L137.564 230.8L137.509 230.84L137.456 230.88L142.256 237.28ZM141.536 217.36L136.231 223.349H136.231L141.536 217.36ZM121.856 215.92L116.761 209.752L116.693 209.808L116.627 209.865L121.856 215.92ZM122.336 235.84L116.052 240.791L116.097 240.849L116.144 240.906L122.336 235.84ZM121.856 287.44L127.512 281.783L127.466 281.737L127.419 281.691L121.856 287.44ZM146.576 287.32L140.53 282.081L140.345 282.294L140.176 282.52L146.576 287.32ZM148.616 282.52L140.724 281.205L140.72 281.23L140.716 281.256L148.616 282.52ZM143.216 268.24L146.851 261.114L146.793 261.084L146.735 261.055L143.216 268.24ZM125.576 265L125.82 257.004L123.381 256.929L121.316 258.228L125.576 265ZM123.136 256.84C123.136 256.787 123.1 256.436 123.781 255.626L111.53 245.334C108.851 248.524 107.136 252.413 107.136 256.84H123.136ZM123.781 255.626C125.088 254.07 126.549 252.67 128.173 251.421L118.418 238.739C115.882 240.69 113.583 242.89 111.53 245.334L123.781 255.626ZM124.892 237.241C121.776 236.606 119.958 235.506 118.842 234.354L107.35 245.486C111.193 249.454 116.176 251.794 121.699 252.919L124.892 237.241ZM119.015 234.539C118.294 233.746 117.496 232.262 117.496 229.12H101.496C101.496 235.098 103.097 240.814 107.176 245.301L119.015 234.539ZM117.496 229.12C117.496 226.682 117.945 224.87 118.614 223.49L104.217 216.51C102.326 220.41 101.496 224.678 101.496 229.12H117.496ZM118.614 223.49C119.381 221.909 120.382 220.678 121.638 219.691L111.753 207.109C108.529 209.642 106.01 212.811 104.217 216.51L118.614 223.49ZM121.667 219.668C123.097 218.534 124.922 217.568 127.274 216.863L122.677 201.537C118.63 202.752 114.934 204.586 111.724 207.132L121.667 219.668ZM127.274 216.863C129.613 216.161 132.383 215.76 135.656 215.76V199.76C131.088 199.76 126.739 200.319 122.677 201.537L127.274 216.863ZM135.656 215.76C137.9 215.76 139.953 216.148 141.876 216.896L147.675 201.984C143.838 200.492 139.812 199.76 135.656 199.76V215.76ZM149.82 215.649C151.269 214.472 152.735 213.182 154.219 211.786L143.253 200.134C142.016 201.298 140.842 202.328 139.731 203.231L149.82 215.649ZM154.051 211.939C155.531 210.623 156.9 209.379 158.154 208.208L147.237 196.512C146.092 197.581 144.82 198.737 143.421 199.981L154.051 211.939ZM158.154 208.208C159.277 207.16 160.181 206.365 160.882 205.792L150.75 193.408C149.691 194.275 148.514 195.32 147.237 196.512L158.154 208.208ZM160.937 205.746C161.252 205.483 161.288 205.486 161.102 205.595C161.002 205.654 160.718 205.815 160.282 205.977C159.885 206.124 159.022 206.4 157.856 206.4V190.4C155.409 190.4 153.575 191.46 152.989 191.805C152.124 192.314 151.339 192.917 150.694 193.454L160.937 205.746ZM157.856 206.4C156.692 206.4 156.009 205.935 155.936 205.88L165.536 193.08C163.542 191.585 160.94 190.4 157.856 190.4V206.4ZM155.936 205.88C155.609 205.635 155.116 205.164 154.723 204.411C154.32 203.639 154.176 202.864 154.176 202.24H170.176C170.176 198.4 168.343 195.185 165.536 193.08L155.936 205.88ZM154.176 202.24C154.176 201.992 154.227 201.632 154.391 201.246C154.552 200.865 154.748 200.634 154.839 200.543L166.152 211.857C168.702 209.307 170.176 205.979 170.176 202.24H154.176ZM154.839 200.543C154.533 200.849 154.04 201.227 153.231 201.61L160.08 216.07C162.312 215.013 164.378 213.631 166.152 211.857L154.839 200.543ZM153.407 201.53C152.358 201.996 151.283 202.373 150.18 202.663L154.252 218.137C156.188 217.627 158.073 216.964 159.905 216.15L153.407 201.53ZM150.18 202.663C148.573 203.086 147.152 203.495 145.966 203.891L151.025 219.069C151.759 218.825 152.818 218.514 154.252 218.137L150.18 202.663ZM143.997 218.095C145.007 218.782 145.773 219.61 146.366 220.638L160.225 212.642C158.418 209.51 155.984 206.898 152.994 204.865L143.997 218.095ZM146.366 220.638C146.818 221.422 147.096 222.347 147.096 223.6H163.096C163.096 219.733 162.173 216.018 160.225 212.642L146.366 220.638ZM147.096 223.6C147.096 226.675 146.591 228.842 145.9 230.354L160.451 237.006C162.32 232.918 163.096 228.365 163.096 223.6H147.096ZM145.9 230.354C145.064 232.183 144.025 233.531 142.828 234.55L153.203 246.73C156.327 244.069 158.728 240.777 160.451 237.006L145.9 230.354ZM142.962 234.438C141.668 235.493 140.088 236.347 138.118 236.949L142.793 252.251C146.583 251.093 150.043 249.307 153.069 246.842L142.962 234.438ZM138.258 236.908C136.222 237.49 134.005 237.8 131.576 237.8V253.8C135.386 253.8 139.09 253.31 142.653 252.292L138.258 236.908ZM131.576 237.8H128.696V253.8H131.576V237.8ZM122.186 241.15C121.031 242.767 120.053 244.528 119.225 246.391L133.846 252.889C134.298 251.872 134.76 251.073 135.205 250.45L122.186 241.15ZM119.138 246.594C118.11 249.09 117.696 251.716 117.696 254.32H133.696C133.696 253.404 133.841 252.91 133.933 252.686L119.138 246.594ZM117.696 254.32C117.696 256.1 118.046 258.259 119.286 260.326C120.583 262.488 122.487 263.933 124.525 264.748L130.467 249.892C131.305 250.227 132.308 250.932 133.006 252.094C133.646 253.161 133.696 254.06 133.696 254.32H117.696ZM124.524 264.748C127.096 265.776 129.949 266.04 132.536 266.04V250.04C131.737 250.04 131.167 249.995 130.787 249.94C130.393 249.884 130.324 249.835 130.467 249.892L124.524 264.748ZM132.262 266.035C141.315 266.345 146.102 267.793 148.169 269.157L156.982 255.803C151.049 251.887 142.477 250.375 132.809 250.045L132.262 266.035ZM148.23 269.197C150.595 270.727 150.696 271.763 150.696 272.44H166.696C166.696 265.117 162.717 259.513 156.922 255.763L148.23 269.197ZM150.696 272.44C150.696 275.751 149.954 278.126 148.82 279.916L162.332 288.484C165.357 283.714 166.696 278.249 166.696 272.44H150.696ZM148.82 279.916C147.344 282.243 145.515 284.09 143.296 285.532L152.016 298.948C156.196 296.23 159.647 292.717 162.332 288.484L148.82 279.916ZM143.218 285.584C140.849 287.163 138.268 288.32 135.436 289.059L139.475 304.541C144.003 303.36 148.222 301.477 152.093 298.896L143.218 285.584ZM135.436 289.059C132.277 289.883 129.565 290.24 127.256 290.24V306.24C131.186 306.24 135.274 305.637 139.475 304.541L135.436 289.059ZM127.256 290.24C122.089 290.24 119.683 288.954 118.512 287.783L107.199 299.097C112.428 304.326 119.622 306.24 127.256 306.24V290.24ZM118.512 287.783C117.134 286.405 116.176 284.446 116.176 281.08H100.176C100.176 287.954 102.337 294.235 107.199 299.097L118.512 287.783ZM116.176 281.08C116.176 279.941 116.369 279.061 116.66 278.349L101.851 272.291C100.702 275.099 100.176 278.059 100.176 281.08H116.176ZM116.609 278.471C117.041 277.462 117.571 276.598 118.191 275.846L105.84 265.674C104.22 267.642 102.91 269.818 101.902 272.169L116.609 278.471ZM117.852 276.232C118.759 275.264 119.713 274.401 120.715 273.635L110.996 260.925C109.278 262.239 107.673 263.696 106.179 265.288L117.852 276.232ZM120.293 273.936C121.478 273.147 122.631 272.477 123.753 271.915L116.598 257.605C114.84 258.483 113.114 259.493 111.418 260.624L120.293 273.936ZM122.195 257.019C122.094 256.993 122.304 257.031 122.636 257.28C122.996 257.55 123.299 257.919 123.491 258.302L109.18 265.458C111.121 269.339 114.529 271.555 118.156 272.501L122.195 257.019ZM123.566 258.455C123.344 257.988 123.166 257.368 123.128 256.493L107.143 257.188C107.265 259.992 107.887 262.732 109.106 265.305L123.566 258.455ZM133.136 247.8C138.074 247.8 142.999 246.723 147.056 243.68L137.456 230.88C137.033 231.197 135.877 231.8 133.136 231.8V247.8ZM146.948 243.76C152.243 239.925 153.736 233.809 153.736 228.28H137.736C137.736 229.771 137.529 230.561 137.404 230.885C137.31 231.127 137.323 230.975 137.564 230.8L146.948 243.76ZM153.736 228.28C153.736 221.883 151.812 215.775 146.84 211.371L136.231 223.349C136.859 223.905 137.736 225.077 137.736 228.28H153.736ZM146.84 211.371C142.47 207.501 137.143 205.64 131.336 205.64V221.64C133.529 221.64 135.001 222.259 136.231 223.349L146.84 211.371ZM131.336 205.64C126.419 205.64 120.842 206.381 116.761 209.752L126.951 222.088C126.657 222.331 126.674 222.181 127.476 221.988C128.262 221.799 129.507 221.64 131.336 221.64V205.64ZM116.627 209.865C112.153 213.729 111.216 219.573 111.216 224.32H127.216C127.216 222.801 127.386 221.946 127.508 221.559C127.618 221.208 127.59 221.538 127.085 221.975L116.627 209.865ZM111.216 224.32C111.216 230.298 112.425 236.188 116.052 240.791L128.62 230.889C128.086 230.212 127.216 228.422 127.216 224.32H111.216ZM116.144 240.906C120.438 246.154 126.873 247.8 133.136 247.8V231.8C129.318 231.8 128.553 230.806 128.527 230.774L116.144 240.906ZM110.136 277.84C110.136 283.632 112.005 289.04 116.292 293.189L127.419 281.691C126.747 281.04 126.136 280.048 126.136 277.84H110.136ZM116.199 293.097C120.945 297.843 127.863 299.16 134.576 299.16V283.16C129.288 283.16 127.726 281.997 127.512 281.783L116.199 293.097ZM134.576 299.16C138.197 299.16 141.718 298.812 144.785 297.789L139.726 282.611C138.954 282.868 137.355 283.16 134.576 283.16V299.16ZM144.785 297.789C147.839 296.771 150.809 295.009 152.976 292.12L140.176 282.52C140.283 282.377 140.365 282.326 140.338 282.344C140.3 282.369 140.122 282.478 139.726 282.611L144.785 297.789ZM152.621 292.559C154.873 289.961 156.024 286.855 156.515 283.784L140.716 281.256C140.568 282.185 140.358 282.279 140.53 282.081L152.621 292.559ZM156.507 283.835C156.92 281.358 157.096 278.617 157.096 275.68H141.096C141.096 278.023 140.952 279.842 140.724 281.205L156.507 283.835ZM157.096 275.68C157.096 268.37 151.994 263.738 146.851 261.114L139.58 275.366C140.891 276.035 141.306 276.505 141.349 276.56C141.354 276.566 141.275 276.466 141.202 276.262C141.126 276.051 141.096 275.842 141.096 275.68H157.096ZM146.735 261.055C141.278 258.383 134.033 257.255 125.82 257.004L125.331 272.996C132.798 273.225 137.314 274.257 139.697 275.424L146.735 261.055ZM121.316 258.228C114.244 262.677 110.136 269.405 110.136 277.84H126.136C126.136 275.395 126.988 273.563 129.835 271.772L121.316 258.228ZM171.221 227.92L178.856 230.306L171.221 227.92ZM176.621 217.72L182.835 222.758L182.867 222.718L182.9 222.677L176.621 217.72ZM185.621 210.52L189.134 217.707L189.198 217.676L189.262 217.643L185.621 210.52ZM209.141 210.28L205.271 217.282L205.309 217.303L205.348 217.324L209.141 210.28ZM216.701 216.88L210.165 221.493L210.197 221.54L210.231 221.585L216.701 216.88ZM220.901 225.88L213.162 227.907L213.168 227.93L213.174 227.953L220.901 225.88ZM221.741 241.96L229.654 243.132L229.657 243.112L229.66 243.091L221.741 241.96ZM220.181 248.44L212.591 245.91V245.91L220.181 248.44ZM217.301 254.68L210.441 250.564L210.415 250.606L210.39 250.649L217.301 254.68ZM212.981 259.84L207.752 253.785L207.679 253.848L207.608 253.912L212.981 259.84ZM203.741 265.12L201.211 257.531L201.185 257.539L201.159 257.548L203.741 265.12ZM183.821 265.24L186.72 257.784L183.821 265.24ZM176.261 260.2L170.304 265.54L170.401 265.649L170.502 265.753L176.261 260.2ZM171.221 251.68L163.687 254.371L163.715 254.45L163.745 254.528L171.221 251.68ZM181.181 244.6L173.313 246.049L173.335 246.17L173.361 246.291L181.181 244.6ZM184.181 252.76L177.166 256.607L177.193 256.656L177.22 256.704L184.181 252.76ZM189.701 258.76L185.159 265.346L185.211 265.381L185.263 265.416L189.701 258.76ZM204.461 259.36L199.811 252.85L199.735 252.904L199.661 252.96L204.461 259.36ZM208.541 254.56L201.443 250.869V250.869L208.541 254.56ZM210.701 247.72L202.838 246.246L202.815 246.365L202.797 246.485L210.701 247.72ZM210.461 230.68L202.586 232.093L202.604 232.191L202.624 232.288L210.461 230.68ZM207.461 222.28L200.396 226.033L200.467 226.167L200.542 226.297L207.461 222.28ZM201.941 216.04L197.141 222.44L197.268 222.535L197.399 222.626L201.941 216.04ZM187.301 215.44L182.452 209.077L187.301 215.44ZM183.221 220.6L176.013 217.129L175.984 217.188L175.957 217.248L183.221 220.6ZM177.421 239.8C177.421 236.518 177.901 233.363 178.856 230.306L163.585 225.534C162.14 230.157 161.421 234.922 161.421 239.8H177.421ZM178.856 230.306C179.772 227.378 181.107 224.889 182.835 222.758L170.407 212.682C167.334 216.471 165.07 220.782 163.585 225.534L178.856 230.306ZM182.9 222.677C184.531 220.611 186.573 218.959 189.134 217.707L182.107 203.333C177.468 205.601 173.511 208.749 170.342 212.763L182.9 222.677ZM189.262 217.643C191.56 216.469 194.435 215.76 198.101 215.76V199.76C192.327 199.76 186.882 200.891 181.98 203.397L189.262 217.643ZM198.101 215.76C201.392 215.76 203.671 216.398 205.271 217.282L213.01 203.278C208.53 200.802 203.449 199.76 198.101 199.76V215.76ZM205.348 217.324C207.45 218.456 209.004 219.85 210.165 221.493L223.236 212.267C220.557 208.47 217.072 205.464 212.933 203.236L205.348 217.324ZM210.231 221.585C211.528 223.369 212.518 225.449 213.162 227.907L228.64 223.853C227.523 219.591 225.713 215.671 223.171 212.175L210.231 221.585ZM213.174 227.953C213.879 230.581 214.221 233.164 214.221 235.72H230.221C230.221 231.716 229.682 227.739 228.627 223.807L213.174 227.953ZM214.221 235.72C214.221 237.202 214.097 238.899 213.821 240.829L229.66 243.091C230.025 240.541 230.221 238.078 230.221 235.72H214.221ZM213.827 240.788C213.578 242.467 213.17 244.174 212.591 245.91L227.77 250.97C228.631 248.386 229.263 245.773 229.654 243.132L213.827 240.788ZM212.591 245.91C212.06 247.503 211.348 249.052 210.441 250.564L224.161 258.796C225.654 256.308 226.861 253.697 227.77 250.97L212.591 245.91ZM210.39 250.649C209.736 251.772 208.875 252.816 207.752 253.785L218.21 265.895C220.607 263.824 222.626 261.428 224.211 258.711L210.39 250.649ZM207.608 253.912C205.948 255.417 203.863 256.647 201.211 257.531L206.27 272.709C210.819 271.193 214.893 268.903 218.353 265.768L207.608 253.912ZM201.159 257.548C198.443 258.474 195.754 258.92 193.061 258.92V274.92C197.568 274.92 201.999 274.166 206.322 272.692L201.159 257.548ZM193.061 258.92C190.711 258.92 188.62 258.523 186.72 257.784L180.921 272.696C184.781 274.197 188.85 274.92 193.061 274.92V258.92ZM186.72 257.784C184.928 257.087 183.381 256.059 182.019 254.647L170.502 265.753C173.46 268.821 176.954 271.153 180.921 272.696L186.72 257.784ZM182.217 254.86C180.885 253.374 179.68 251.414 178.697 248.832L163.745 254.528C165.321 258.666 167.476 262.386 170.304 265.54L182.217 254.86ZM178.755 248.989C177.935 246.695 177.421 243.686 177.421 239.8H161.421C161.421 245.034 162.106 249.945 163.687 254.371L178.755 248.989ZM172.341 235.72C172.341 239.12 172.671 242.566 173.313 246.049L189.048 243.151C188.57 240.554 188.341 238.08 188.341 235.72H172.341ZM173.361 246.291C174.153 249.951 175.41 253.404 177.166 256.607L191.195 248.913C190.231 247.156 189.488 245.169 189 242.909L173.361 246.291ZM177.22 256.704C179.19 260.179 181.866 263.075 185.159 265.346L194.242 252.174C192.896 251.245 191.891 250.141 191.141 248.816L177.22 256.704ZM185.263 265.416C189.213 268.05 193.751 269.16 198.461 269.16V253.16C196.291 253.16 194.988 252.67 194.138 252.104L185.263 265.416ZM198.461 269.16C202.236 269.16 206.016 268.194 209.261 265.76L199.661 252.96C199.646 252.971 199.601 253.006 199.462 253.047C199.309 253.093 198.996 253.16 198.461 253.16V269.16ZM209.111 265.87C211.909 263.871 214.071 261.266 215.638 258.251L201.443 250.869C200.931 251.854 200.372 252.449 199.811 252.85L209.111 265.87ZM215.638 258.251C217.133 255.376 218.09 252.246 218.605 248.955L202.797 246.485C202.511 248.314 202.028 249.744 201.443 250.869L215.638 258.251ZM218.564 249.194C219.139 246.127 219.421 242.993 219.421 239.8H203.421C203.421 242.047 203.223 244.193 202.838 246.246L218.564 249.194ZM219.421 239.8C219.421 236.261 219.038 232.682 218.297 229.072L202.624 232.288C203.163 234.918 203.421 237.419 203.421 239.8H219.421ZM218.335 229.267C217.627 225.326 216.333 221.629 214.379 218.263L200.542 226.297C201.468 227.891 202.174 229.794 202.586 232.093L218.335 229.267ZM214.526 218.527C212.582 214.868 209.889 211.804 206.482 209.454L197.399 222.626C198.632 223.476 199.62 224.572 200.396 226.033L214.526 218.527ZM206.741 209.64C202.824 206.703 198.188 205.52 193.421 205.52V221.52C195.534 221.52 196.577 222.017 197.141 222.44L206.741 209.64ZM193.421 205.52C189.519 205.52 185.712 206.593 182.452 209.077L192.149 221.803C192.249 221.727 192.522 221.52 193.421 221.52V205.52ZM182.452 209.077C179.64 211.219 177.525 213.987 176.013 217.129L190.429 224.071C190.996 222.893 191.601 222.221 192.149 221.803L182.452 209.077ZM175.957 217.248C174.671 220.034 173.77 223.056 173.19 226.249L188.932 229.111C189.311 227.024 189.85 225.326 190.484 223.952L175.957 217.248ZM173.19 226.249C172.623 229.368 172.341 232.527 172.341 235.72H188.341C188.341 233.473 188.539 231.272 188.932 229.111L173.19 226.249ZM233.419 261.52L237.857 268.176L237.964 268.105L238.069 268.03L233.419 261.52ZM235.339 260.44L238.588 267.75L235.339 260.44ZM237.499 259.6L240.029 267.189L240.395 267.067L240.748 266.91L237.499 259.6ZM239.059 258.88L242.637 266.035L247.059 263.824V258.88H239.059ZM239.059 219.4H247.059V212.842L240.628 211.555L239.059 219.4ZM233.059 213.52L238.181 219.666L238.326 219.545L238.465 219.417L233.059 213.52ZM236.539 211.24L233.29 203.93L233.211 203.965L233.133 204.001L236.539 211.24ZM241.099 209.68L243.039 217.441L243.22 217.396L243.398 217.343L241.099 209.68ZM248.179 210.16H256.179V209.368L256.024 208.591L248.179 210.16ZM248.179 216.28H240.179V234.052L253.483 222.269L248.179 216.28ZM257.179 210.16L253.672 202.97L253.636 202.987L253.601 203.005L257.179 210.16ZM275.539 208.96L272.667 216.427L272.837 216.492L273.009 216.549L275.539 208.96ZM281.179 213.16L287.52 208.282L281.179 213.16ZM284.179 219.4L276.323 220.911L276.357 221.09L276.4 221.267L284.179 219.4ZM285.979 258.88L282.094 265.873L282.537 266.12L283.008 266.308L285.979 258.88ZM288.499 259.72L286.394 267.438L288.499 259.72ZM290.899 260.56L287.65 267.87L287.65 267.87L290.899 260.56ZM291.019 264.04L296.676 269.697L296.842 269.531L296.998 269.355L291.019 264.04ZM268.579 264.16L261.226 267.311L261.406 267.732L261.633 268.129L268.579 264.16ZM268.939 261.52L273.377 268.176L273.484 268.105L273.589 268.03L268.939 261.52ZM270.739 260.44L267.49 253.13L267.324 253.203L267.161 253.285L270.739 260.44ZM272.779 259.6L275.588 267.091L275.811 267.007L276.028 266.91L272.779 259.6ZM274.339 258.88L277.917 266.035L282.339 263.824V258.88H274.339ZM271.219 218.2L265.16 223.424L265.211 223.482L265.263 223.54L271.219 218.2ZM255.979 216.16L258.58 223.725L258.647 223.703L258.713 223.678L255.979 216.16ZM249.379 220L243.985 214.092L241.379 216.471V220H249.379ZM250.579 258.64L246.463 265.5L246.854 265.734L247.269 265.923L250.579 258.64ZM253.459 259.6L251.66 267.395L253.459 259.6ZM256.219 260.44L253.248 267.868L253.366 267.915L253.485 267.958L256.219 260.44ZM233.059 264.16L225.706 267.311L225.886 267.732L226.113 268.129L233.059 264.16ZM240.699 262.6C240.699 264.109 240.217 265.446 239.535 266.468C238.91 267.406 238.219 267.935 237.857 268.176L228.981 254.864C227.335 255.962 224.699 258.464 224.699 262.6H240.699ZM238.069 268.03C238.132 267.984 238.292 267.882 238.588 267.75L232.09 253.13C230.947 253.638 229.826 254.256 228.769 255.01L238.069 268.03ZM238.588 267.75C239.082 267.531 239.562 267.345 240.029 267.189L234.969 252.011C233.996 252.335 233.036 252.709 232.09 253.13L238.588 267.75ZM240.748 266.91C241.48 266.585 242.142 266.283 242.637 266.035L235.481 251.725C235.336 251.797 234.958 251.975 234.25 252.29L240.748 266.91ZM247.059 258.88V219.4H231.059V258.88H247.059ZM240.628 211.555C239.631 211.356 238.521 211.014 237.29 210.487L230.988 225.193C233.117 226.106 235.287 226.804 237.49 227.245L240.628 211.555ZM237.29 210.487C236.684 210.227 236.749 210.191 237.097 210.457C237.28 210.596 237.803 211.014 238.33 211.767C238.879 212.551 239.619 213.98 239.619 215.92H223.619C223.619 220.213 226.635 222.6 227.401 223.183C228.589 224.089 229.914 224.733 230.988 225.193L237.29 210.487ZM239.619 215.92C239.619 217.196 239.219 218.202 238.839 218.836C238.658 219.137 238.488 219.347 238.375 219.472C238.263 219.597 238.189 219.659 238.181 219.666L227.938 207.374C226.18 208.839 223.619 211.674 223.619 215.92H239.619ZM238.465 219.417C238.746 219.159 239.206 218.827 239.945 218.479L233.133 204.001C231.153 204.933 229.292 206.121 227.653 207.623L238.465 219.417ZM239.788 218.55C240.787 218.107 241.867 217.734 243.039 217.441L239.159 201.919C237.131 202.426 235.172 203.093 233.29 203.93L239.788 218.55ZM243.398 217.343C244.521 217.006 245.116 216.96 245.299 216.96V200.96C243.082 200.96 240.877 201.394 238.8 202.017L243.398 217.343ZM245.299 216.96C245.753 216.96 245.207 217.038 244.262 216.645C243.723 216.42 242.875 215.966 242.061 215.094C241.193 214.164 240.588 212.995 240.334 211.729L256.024 208.591C255.279 204.865 252.595 202.783 250.416 201.875C248.512 201.082 246.605 200.96 245.299 200.96V216.96ZM240.179 210.16V216.28H256.179V210.16H240.179ZM253.483 222.269C255.785 220.23 258.208 218.59 260.757 217.315L253.601 203.005C249.75 204.93 246.173 207.37 242.875 210.291L253.483 222.269ZM260.686 217.35C262.751 216.343 265.21 215.76 268.219 215.76V199.76C263.068 199.76 258.167 200.777 253.672 202.97L260.686 217.35ZM268.219 215.76C270.279 215.76 271.705 216.057 272.667 216.427L278.411 201.493C275.213 200.263 271.759 199.76 268.219 199.76V215.76ZM273.009 216.549C273.436 216.692 274.057 217.023 274.838 218.038L287.52 208.282C285.101 205.137 281.962 202.668 278.069 201.371L273.009 216.549ZM274.838 218.038C275.856 219.36 276.208 220.314 276.323 220.911L292.035 217.889C291.35 214.326 289.703 211.12 287.52 208.282L274.838 218.038ZM276.4 221.267C276.732 222.649 276.899 224.062 276.899 225.52H292.899C292.899 222.818 292.587 220.151 291.958 217.533L276.4 221.267ZM276.899 225.52V256.84H292.899V225.52H276.899ZM276.899 256.84C276.899 260.128 278.367 263.803 282.094 265.873L289.864 251.887C290.758 252.383 291.643 253.2 292.239 254.327C292.803 255.391 292.899 256.332 292.899 256.84H276.899ZM283.008 266.308C284.107 266.747 285.237 267.123 286.394 267.438L290.604 252.002C290.001 251.837 289.451 251.653 288.95 251.452L283.008 266.308ZM286.394 267.438C286.942 267.588 287.353 267.738 287.65 267.87L294.148 253.25C293.005 252.742 291.816 252.332 290.604 252.002L286.394 267.438ZM287.65 267.87C286.704 267.45 285.62 266.651 284.849 265.366C284.113 264.14 283.979 263 283.979 262.36H299.979C299.979 260.84 299.665 258.96 298.569 257.134C297.438 255.249 295.814 253.99 294.148 253.25L287.65 267.87ZM283.979 262.36C283.979 261.407 284.166 260.65 284.33 260.16C284.494 259.666 284.679 259.31 284.793 259.111C285.007 258.737 285.153 258.598 285.04 258.725L296.998 269.355C297.525 268.762 298.151 267.983 298.685 267.049C299.156 266.225 299.979 264.558 299.979 262.36H283.979ZM285.362 258.383C286.134 257.611 286.93 257.26 287.406 257.114C287.849 256.977 288.063 257 287.899 257V273C290.251 273 293.855 272.518 296.676 269.697L285.362 258.383ZM287.899 257H270.499V273H287.899V257ZM270.499 257C270.735 257 271.511 257.026 272.506 257.461C273.622 257.949 274.76 258.852 275.525 260.191L261.633 268.129C264.002 272.275 268.2 273 270.499 273V257ZM275.932 261.009C276.008 261.186 276.219 261.747 276.219 262.6H260.219C260.219 264.413 260.67 266.014 261.226 267.311L275.932 261.009ZM276.219 262.6C276.219 264.109 275.737 265.446 275.055 266.468C274.43 267.406 273.739 267.935 273.377 268.176L264.501 254.864C262.855 255.962 260.219 258.464 260.219 262.6H276.219ZM273.589 268.03C273.796 267.882 274.036 267.736 274.317 267.595L267.161 253.285C266.162 253.784 265.202 254.358 264.289 255.01L273.589 268.03ZM273.988 267.75C274.585 267.485 275.117 267.267 275.588 267.091L269.97 252.109C269.161 252.413 268.334 252.755 267.49 253.13L273.988 267.75ZM276.028 266.91C276.76 266.585 277.422 266.283 277.917 266.035L270.761 251.725C270.616 251.797 270.238 251.975 269.53 252.29L276.028 266.91ZM282.339 258.88V230.08H266.339V258.88H282.339ZM282.339 230.08C282.339 223.923 281.281 217.438 277.176 212.86L265.263 223.54C265.231 223.505 265.527 223.819 265.821 224.942C266.117 226.066 266.339 227.733 266.339 230.08H282.339ZM277.278 212.976C273.726 208.856 268.937 206.72 263.539 206.72V222.72C264.381 222.72 264.712 222.904 265.16 223.424L277.278 212.976ZM263.539 206.72C260.063 206.72 256.615 207.416 253.245 208.642L258.713 223.678C260.623 222.984 262.215 222.72 263.539 222.72V206.72ZM253.378 208.594C249.874 209.799 246.701 211.613 243.985 214.092L254.773 225.908C255.738 225.027 256.964 224.281 258.58 223.725L253.378 208.594ZM241.379 220V256.12H257.379V220H241.379ZM241.379 256.12C241.379 259.209 242.557 263.156 246.463 265.5L254.695 251.78C255.641 252.347 256.423 253.205 256.902 254.211C257.339 255.129 257.379 255.862 257.379 256.12H241.379ZM247.269 265.923C248.681 266.565 250.154 267.047 251.66 267.395L255.258 251.805C254.684 251.673 254.237 251.515 253.889 251.357L247.269 265.923ZM251.66 267.395C252.391 267.564 252.906 267.731 253.248 267.868L259.19 253.012C257.932 252.509 256.607 252.116 255.258 251.805L251.66 267.395ZM253.485 267.958C252.688 267.669 251.521 267.008 250.617 265.692C249.723 264.393 249.539 263.113 249.539 262.36H265.539C265.539 260.647 265.135 258.567 263.801 256.628C262.457 254.672 260.63 253.531 258.953 252.922L253.485 267.958ZM249.539 262.36C249.539 261.761 249.66 260.846 250.172 259.851C250.699 258.828 251.45 258.091 252.173 257.623C253.397 256.832 254.212 257 253.459 257V273C255.426 273 258.282 272.728 260.865 271.057C264.049 268.997 265.539 265.674 265.539 262.36H249.539ZM253.459 257H234.979V273H253.459V257ZM234.979 257C235.215 257 235.991 257.026 236.986 257.461C238.102 257.949 239.24 258.852 240.005 260.191L226.113 268.129C228.482 272.275 232.68 273 234.979 273V257ZM240.412 261.009C240.488 261.186 240.699 261.747 240.699 262.6H224.699C224.699 264.413 225.15 266.014 225.706 267.311L240.412 261.009Z" fill="black"/>
</g>
<defs>
<filter id="filter0_i_2_5" x="23.7949" y="3.80682" width="356.41" height="396.386" filterUnits="userSpaceOnUse" color-interpolation-filters="sRGB">
<feFlood flood-opacity="0" result="BackgroundImageFix"/>
<feBlend mode="normal" in="SourceGraphic" in2="BackgroundImageFix" result="shape"/>
<feColorMatrix in="SourceAlpha" type="matrix" values="0 0 0 0 0 0 0 0 0 0 0 0 0 0 0 0 0 0 127 0" result="hardAlpha"/>
<feOffset dx="20" dy="10"/>
<feGaussianBlur stdDeviation="2"/>
<feComposite in2="hardAlpha" operator="arithmetic" k2="-1" k3="1"/>
<feColorMatrix type="matrix" values="0 0 0 0 0 0 0 0 0 0 0 0 0 0 0 0 0 0 0.25 0"/>
<feBlend mode="normal" in2="shape" result="effect1_innerShadow_2_5"/>
</filter>
<filter id="filter1_d_2_5" x="71.4475" y="132.04" width="261.235" height="174.2" filterUnits="userSpaceOnUse" color-interpolation-filters="sRGB">
<feFlood flood-opacity="0" result="BackgroundImageFix"/>
<feColorMatrix in="SourceAlpha" type="matrix" values="0 0 0 0 0 0 0 0 0 0 0 0 0 0 0 0 0 0 127 0" result="hardAlpha"/>
<feOffset dy="4"/>
<feGaussianBlur stdDeviation="2"/>
<feComposite in2="hardAlpha" operator="out"/>
<feColorMatrix type="matrix" values="0 0 0 0 0 0 0 0 0 0 0 0 0 0 0 0 0 0 0.25 0"/>
<feBlend mode="normal" in2="BackgroundImageFix" result="effect1_dropShadow_2_5"/>
<feBlend mode="normal" in="SourceGraphic" in2="effect1_dropShadow_2_5" result="shape"/>
</filter>
</defs>
</svg>
